<svg id="SvgjsSvg1039" xmlns="http://www.w3.org/2000/svg" version="1.1" xmlns:xlink="http://www.w3.org/1999/xlink" xmlns:svgjs="http://svgjs.com/svgjs" width="28" height="24"><defs id="SvgjsDefs1040"></defs><path id="SvgjsPath1041" d="M760.28 7505.66C760.15 7505.5599999999995 760.0699999999999 7505.44 760.03 7505.28C759.98 7505.139999999999 759.99 7504.99 760.05 7504.849999999999C760.1099999999999 7504.7 760.2099999999999 7504.589999999999 760.3399999999999 7504.499999999999C760.9399999999999 7504.149999999999 761.4399999999999 7503.759999999999 761.8699999999999 7503.339999999999C762.2899999999998 7502.919999999999 762.6499999999999 7502.509999999999 762.9499999999999 7502.099999999999C763.2399999999999 7501.7 763.4799999999999 7501.32 763.65 7500.959999999999C763.8299999999999 7500.599999999999 763.9499999999999 7500.289999999999 764.04 7500.049999999999C763.4 7499.549999999999 762.8299999999999 7499.0199999999995 762.3299999999999 7498.44C761.8299999999999 7497.86 761.4 7497.25 761.06 7496.61C760.7099999999999 7495.969999999999 760.4499999999999 7495.299999999999 760.27 7494.61C760.09 7493.91 760 7493.21 760 7492.5C760 7491.78 760.09 7491.07 760.28 7490.38C760.4599999999999 7489.6900000000005 760.73 7489.01 761.0799999999999 7488.36C761.2499999999999 7488.04 761.43 7487.73 761.6399999999999 7487.429999999999C761.8499999999999 7487.139999999999 762.0799999999999 7486.849999999999 762.3099999999998 7486.57C762.5499999999998 7486.299999999999 762.8099999999998 7486.03 763.0899999999998 7485.7699999999995C763.3599999999998 7485.509999999999 763.6599999999999 7485.259999999999 763.9699999999998 7485.0199999999995C764.5899999999998 7484.54 765.2599999999998 7484.11 765.9799999999998 7483.73C766.7099999999998 7483.349999999999 767.4599999999998 7483.03 768.2499999999998 7482.78C769.0399999999997 7482.5199999999995 769.8599999999998 7482.33 770.7099999999998 7482.2C771.5599999999998 7482.07 772.4199999999998 7482 773.3099999999998 7482C774.1799999999998 7482 775.0399999999998 7482.07 775.8899999999999 7482.2C776.7399999999999 7482.33 777.5599999999998 7482.5199999999995 778.3499999999999 7482.78C779.1399999999999 7483.03 779.8999999999999 7483.349999999999 780.6199999999999 7483.73C781.3399999999999 7484.11 782.0099999999999 7484.54 782.6399999999999 7485.0199999999995C782.9499999999998 7485.259999999999 783.2399999999999 7485.509999999999 783.5199999999999 7485.7699999999995C783.7899999999998 7486.03 784.0499999999998 7486.299999999999 784.2899999999998 7486.57C784.5299999999999 7486.849999999999 784.7599999999999 7487.139999999999 784.9599999999998 7487.429999999999C785.1699999999998 7487.73 785.3499999999998 7488.039999999999 785.5299999999999 7488.36C785.8799999999999 7489.009999999999 786.1499999999999 7489.69 786.3299999999998 7490.38C786.5199999999999 7491.07 786.6099999999998 7491.78 786.6099999999998 7492.5C786.6099999999998 7493.22 786.5199999999998 7493.93 786.3299999999998 7494.63C786.1499999999999 7495.32 785.8799999999998 7496 785.5299999999999 7496.66C785.3499999999999 7496.97 785.1699999999998 7497.2699999999995 784.9599999999998 7497.57C784.7599999999998 7497.86 784.5299999999999 7498.15 784.2899999999998 7498.429999999999C784.0499999999998 7498.7 783.7899999999998 7498.969999999999 783.5199999999999 7499.23C783.2399999999999 7499.49 782.9499999999998 7499.74 782.6399999999999 7499.98C782.0099999999999 7500.469999999999 781.3399999999999 7500.9 780.6199999999999 7501.28C779.8999999999999 7501.65 779.1499999999999 7501.969999999999 778.3599999999999 7502.219999999999C777.5699999999999 7502.48 776.7499999999999 7502.669999999999 775.8999999999999 7502.799999999999C775.0399999999998 7502.929999999999 774.1799999999998 7502.999999999999 773.3099999999998 7502.999999999999C772.5799999999998 7502.999999999999 771.8599999999998 7502.949999999999 771.1499999999999 7502.859999999999C770.4499999999998 7502.769999999999 769.7499999999999 7502.6399999999985 769.0799999999998 7502.469999999998C768.7799999999999 7502.669999999998 768.3599999999998 7502.9299999999985 767.8199999999998 7503.249999999998C767.2799999999999 7503.579999999998 766.6799999999998 7503.909999999998 766.0199999999999 7504.239999999998C765.4999999999999 7504.499999999998 764.9999999999999 7504.7199999999975 764.5099999999999 7504.919999999998C764.0299999999999 7505.119999999998 763.5699999999998 7505.279999999998 763.1199999999999 7505.409999999998C762.6699999999998 7505.549999999998 762.2499999999999 7505.639999999998 761.8499999999999 7505.709999999998C761.4499999999999 7505.769999999999 761.06 7505.799999999998 760.6999999999999 7505.799999999998C760.54 7505.799999999998 760.4 7505.749999999998 760.28 7505.659999999998ZM768.68 7484.12C767.2299999999999 7484.59 765.9699999999999 7485.24 764.89 7486.07C763.81 7486.889999999999 762.96 7487.86 762.33 7488.969999999999C761.71 7490.07 761.4000000000001 7491.249999999999 761.4000000000001 7492.499999999999C761.4000000000001 7493.139999999999 761.4800000000001 7493.759999999999 761.6600000000001 7494.379999999999C761.83 7494.999999999999 762.08 7495.589999999999 762.4100000000001 7496.159999999999C762.7400000000001 7496.739999999999 763.1400000000001 7497.279999999999 763.6200000000001 7497.799999999999C764.1000000000001 7498.3099999999995 764.6500000000001 7498.779999999999 765.2700000000001 7499.209999999999C765.3800000000001 7499.289999999999 765.4700000000001 7499.409999999999 765.5200000000001 7499.549999999999C765.57 7499.69 765.58 7499.829999999999 765.5400000000001 7499.959999999999C765.4900000000001 7500.119999999999 765.4200000000001 7500.329999999999 765.33 7500.609999999999C765.23 7500.879999999999 765.1 7501.189999999999 764.9200000000001 7501.539999999999C764.7500000000001 7501.879999999999 764.5300000000001 7502.259999999999 764.2700000000001 7502.659999999999C764.0200000000001 7503.059999999999 763.7 7503.459999999999 763.32 7503.879999999999C763.7800000000001 7503.709999999999 764.24 7503.5199999999995 764.71 7503.3099999999995C765.1700000000001 7503.099999999999 765.63 7502.879999999999 766.08 7502.639999999999C766.5300000000001 7502.4 766.97 7502.15 767.39 7501.889999999999C767.8 7501.629999999999 768.1999999999999 7501.369999999999 768.56 7501.129999999999C768.64 7501.0599999999995 768.7399999999999 7501.0199999999995 768.8399999999999 7501.009999999999C768.9499999999999 7500.999999999999 769.05 7500.999999999999 769.1499999999999 7501.03C769.8099999999998 7501.219999999999 770.4899999999999 7501.37 771.1899999999998 7501.46C771.8799999999999 7501.56 772.5899999999998 7501.61 773.3099999999998 7501.61C774.9499999999998 7501.61 776.4899999999998 7501.37 777.9299999999998 7500.889999999999C779.3799999999999 7500.41 780.6399999999999 7499.759999999999 781.7099999999998 7498.929999999999C782.7899999999998 7498.11 783.6399999999998 7497.139999999999 784.2599999999998 7496.039999999999C784.8899999999998 7494.939999999999 785.1999999999998 7493.759999999999 785.1999999999998 7492.499999999999C785.1999999999998 7491.249999999999 784.8899999999999 7490.069999999999 784.2599999999998 7488.969999999999C783.6399999999998 7487.86 782.7899999999997 7486.889999999999 781.7099999999998 7486.07C780.6399999999998 7485.24 779.3799999999998 7484.59 777.9299999999998 7484.12C776.4899999999998 7483.65 774.9499999999998 7483.41 773.3099999999998 7483.41C771.6599999999999 7483.41 770.1199999999998 7483.65 768.6799999999998 7484.12Z " fill="#909090" fill-opacity="1" transform="matrix(1,0,0,1,-759,-7482)"></path></svg>