<svg id="SvgjsSvg1060" xmlns="http://www.w3.org/2000/svg" version="1.1" xmlns:xlink="http://www.w3.org/1999/xlink" xmlns:svgjs="http://svgjs.com/svgjs" width="20" height="23"><defs id="SvgjsDefs1061"></defs><path id="SvgjsPath1062" d="M1255 9296L1258.12 9292.18L1260.4299999999998 9295.08L1262.7399999999998 9292.19L1265.0499999999997 9295.08L1267.3599999999997 9292.19L1269.6599999999996 9295.08L1271.9699999999996 9292.19L1274.9999999999995 9295.980000000001L1274.9999999999995 9273.000000000002L1254.9999999999995 9273.000000000002ZM1272.41 9289.13L1269.96 9292L1267.51 9289.13L1265.05 9292L1262.6 9289.13L1260.1399999999999 9292L1257.6999999999998 9289.13L1255.9999999999998 9291.08L1255.9999999999998 9274L1273.9999999999998 9274L1273.9999999999998 9290.98ZM1271 9278L1271 9277L1260 9277L1260 9278ZM1266 9282L1266 9281L1260 9281L1260 9282ZM1271 9285L1271 9286L1260 9286L1260 9285Z " fill="#909090" fill-opacity="1" transform="matrix(1,0,0,1,-1255,-9273)"></path></svg>