<svg id="SvgjsSvg1036" xmlns="http://www.w3.org/2000/svg" version="1.1" xmlns:xlink="http://www.w3.org/1999/xlink" xmlns:svgjs="http://svgjs.com/svgjs" width="28" height="28"><defs id="SvgjsDefs1037"></defs><path id="SvgjsPath1038" d="M404.49 7506.87C403.86 7506.78 403.21000000000004 7506.65 402.55 7506.48C401.90000000000003 7506.3099999999995 401.24 7506.089999999999 400.57 7505.83C399.9 7505.57 399.23 7505.2699999999995 398.55 7504.92C397.92 7504.6 397.29 7504.25 396.67 7503.86C396.05 7503.469999999999 395.44 7503.0599999999995 394.84000000000003 7502.61C394.24 7502.16 393.65000000000003 7501.69 393.06000000000006 7501.19C392.4800000000001 7500.69 391.9200000000001 7500.169999999999 391.37000000000006 7499.629999999999C390.83000000000004 7499.079999999999 390.31000000000006 7498.5199999999995 389.81000000000006 7497.94C389.31000000000006 7497.349999999999 388.84000000000003 7496.759999999999 388.40000000000003 7496.16C387.95000000000005 7495.5599999999995 387.54 7494.94 387.15000000000003 7494.32C386.76000000000005 7493.69 386.41 7493.07 386.09000000000003 7492.45C385.75000000000006 7491.7699999999995 385.44000000000005 7491.09 385.18 7490.42C384.92 7489.75 384.71 7489.09 384.53000000000003 7488.43C384.36 7487.780000000001 384.23 7487.13 384.14000000000004 7486.490000000001C384.05000000000007 7485.85 384.00000000000006 7485.2300000000005 384.00000000000006 7484.610000000001C384.00000000000006 7484.200000000001 384.08000000000004 7483.81 384.25000000000006 7483.420000000001C384.4100000000001 7483.040000000001 384.61000000000007 7482.680000000001 384.83000000000004 7482.350000000001C385.06000000000006 7482.020000000001 385.30000000000007 7481.730000000001 385.54 7481.470000000001C385.78000000000003 7481.210000000001 385.98 7481.010000000001 386.15000000000003 7480.8600000000015C386.37000000000006 7480.640000000001 386.63000000000005 7480.420000000002 386.93 7480.200000000002C387.22 7479.980000000001 387.52 7479.790000000002 387.82 7479.6100000000015C388.13 7479.430000000001 388.43 7479.280000000002 388.74 7479.170000000002C389.04 7479.060000000002 389.33 7479.000000000002 389.59000000000003 7479.000000000002C389.85 7479.000000000002 390.13000000000005 7479.090000000002 390.45000000000005 7479.270000000002C390.77000000000004 7479.440000000002 391.13000000000005 7479.720000000002 391.53000000000003 7480.090000000002C391.82000000000005 7480.370000000002 392.13000000000005 7480.690000000002 392.46000000000004 7481.050000000002C392.79 7481.420000000002 393.12000000000006 7481.820000000002 393.46000000000004 7482.250000000002C393.56000000000006 7482.380000000002 393.74 7482.630000000002 394.01000000000005 7482.990000000002C394.27000000000004 7483.350000000001 394.54 7483.750000000002 394.82000000000005 7484.200000000002C395.1 7484.640000000001 395.35 7485.090000000002 395.56000000000006 7485.550000000002C395.77000000000004 7486.000000000002 395.88000000000005 7486.390000000002 395.88000000000005 7486.710000000002C395.88000000000005 7487.230000000002 395.63000000000005 7487.690000000001 395.14000000000004 7488.080000000002C394.64000000000004 7488.470000000002 394.08000000000004 7488.8600000000015 393.45000000000005 7489.250000000002C393.21000000000004 7489.4000000000015 392.97 7489.550000000002 392.74000000000007 7489.700000000002C392.50000000000006 7489.850000000001 392.2900000000001 7490.000000000002 392.11000000000007 7490.140000000001C391.9200000000001 7490.300000000001 391.7900000000001 7490.420000000001 391.7300000000001 7490.500000000001C391.6700000000001 7490.580000000001 391.6400000000001 7490.630000000001 391.6400000000001 7490.650000000001C391.9700000000001 7491.4800000000005 392.4500000000001 7492.330000000001 393.0900000000001 7493.22C393.7300000000001 7494.1 394.4500000000001 7494.9400000000005 395.2500000000001 7495.740000000001C396.04000000000013 7496.540000000001 396.8800000000001 7497.260000000001 397.7700000000001 7497.89C398.6500000000001 7498.530000000001 399.5100000000001 7499.02 400.3400000000001 7499.360000000001C400.36000000000007 7499.35 400.4100000000001 7499.320000000001 400.49000000000007 7499.26C400.57000000000005 7499.21 400.69000000000005 7499.08 400.8400000000001 7498.89C400.99000000000007 7498.71 401.1400000000001 7498.5 401.2900000000001 7498.26C401.44000000000005 7498.030000000001 401.5900000000001 7497.79 401.75000000000006 7497.54C402.13000000000005 7496.91 402.52000000000004 7496.35 402.9100000000001 7495.85C403.30000000000007 7495.35 403.7600000000001 7495.110000000001 404.2900000000001 7495.110000000001C404.61000000000007 7495.110000000001 405.00000000000006 7495.210000000001 405.4500000000001 7495.43C405.9100000000001 7495.64 406.3600000000001 7495.89 406.8000000000001 7496.17C407.2400000000001 7496.4400000000005 407.6400000000001 7496.71 408.0000000000001 7496.9800000000005C408.3600000000001 7497.240000000001 408.6100000000001 7497.43 408.7500000000001 7497.530000000001C409.17000000000013 7497.860000000001 409.5700000000001 7498.200000000001 409.9400000000001 7498.52C410.3100000000001 7498.85 410.6300000000001 7499.17 410.91000000000014 7499.47C411.27000000000015 7499.87 411.54000000000013 7500.2300000000005 411.72000000000014 7500.54C411.90000000000015 7500.85 411.9900000000001 7501.14 411.9900000000001 7501.41C411.9900000000001 7501.67 411.9300000000001 7501.96 411.8200000000001 7502.26C411.7000000000001 7502.570000000001 411.5600000000001 7502.87 411.3800000000001 7503.18C411.2000000000001 7503.4800000000005 411.0000000000001 7503.780000000001 410.7800000000001 7504.070000000001C410.56000000000006 7504.370000000001 410.3500000000001 7504.630000000001 410.1400000000001 7504.85C409.9900000000001 7505.02 409.7900000000001 7505.22 409.5300000000001 7505.46C409.2700000000001 7505.7 408.9800000000001 7505.94 408.6400000000001 7506.17C408.3100000000001 7506.41 407.9500000000001 7506.6 407.5600000000001 7506.76C407.1800000000001 7506.92 406.78000000000014 7507 406.3800000000001 7507C405.7600000000001 7507 405.1300000000001 7506.96 404.4900000000001 7506.87ZM388.61 7480.76C388.15000000000003 7481 387.65000000000003 7481.37 387.09000000000003 7481.88C386.57000000000005 7482.37 386.16 7482.85 385.86 7483.34C385.56 7483.83 385.41 7484.25 385.41 7484.610000000001C385.41 7486.960000000001 386.06 7489.370000000001 387.36 7491.860000000001C388.67 7494.34 390.33000000000004 7496.6 392.37 7498.64C394.4 7500.68 396.66 7502.35 399.13 7503.650000000001C401.61 7504.950000000001 404.03 7505.610000000001 406.38 7505.610000000001C406.75 7505.610000000001 407.17 7505.450000000001 407.65999999999997 7505.150000000001C408.15 7504.84 408.63 7504.43 409.09999999999997 7503.910000000001C409.60999999999996 7503.35 409.98999999999995 7502.85 410.21999999999997 7502.39C410.46 7501.93 410.58 7501.6 410.59 7501.410000000001C410.56 7501.280000000001 410.34 7500.970000000001 409.92999999999995 7500.470000000001C409.50999999999993 7499.970000000001 408.79999999999995 7499.340000000001 407.78999999999996 7498.560000000001C407.35999999999996 7498.230000000001 406.95 7497.930000000001 406.56999999999994 7497.680000000001C406.17999999999995 7497.420000000001 405.8299999999999 7497.210000000001 405.5299999999999 7497.030000000002C405.2199999999999 7496.8600000000015 404.9599999999999 7496.730000000001 404.74999999999994 7496.640000000001C404.5299999999999 7496.560000000001 404.37999999999994 7496.510000000001 404.28999999999996 7496.500000000001C404.28 7496.510000000001 404.22999999999996 7496.540000000001 404.15 7496.600000000001C404.07 7496.6500000000015 403.95 7496.780000000002 403.79999999999995 7496.980000000001C403.65999999999997 7497.1500000000015 403.52 7497.350000000001 403.36999999999995 7497.580000000002C403.22999999999996 7497.810000000001 403.0799999999999 7498.040000000002 402.93999999999994 7498.280000000002C402.53999999999996 7498.920000000002 402.1499999999999 7499.490000000002 401.74999999999994 7499.990000000002C401.34999999999997 7500.500000000002 400.87999999999994 7500.750000000002 400.3399999999999 7500.750000000002C400.24999999999994 7500.750000000002 400.1599999999999 7500.750000000002 400.0799999999999 7500.730000000001C399.99999999999994 7500.720000000001 399.9099999999999 7500.690000000001 399.8299999999999 7500.660000000002C398.9099999999999 7500.290000000002 397.9699999999999 7499.760000000002 396.99999999999994 7499.0700000000015C396.03999999999996 7498.380000000002 395.11999999999995 7497.600000000001 394.24999999999994 7496.730000000001C393.38999999999993 7495.870000000002 392.60999999999996 7494.950000000002 391.91999999999996 7493.990000000002C391.22999999999996 7493.030000000002 390.69999999999993 7492.090000000002 390.33 7491.170000000002C390.25 7490.950000000002 390.22999999999996 7490.670000000002 390.28 7490.340000000002C390.32 7490.010000000002 390.55999999999995 7489.640000000002 391 7489.240000000002C391.23 7489.040000000002 391.49 7488.840000000002 391.8 7488.640000000001C392.11 7488.440000000001 392.41 7488.240000000002 392.72 7488.050000000001C392.95000000000005 7487.910000000001 393.18 7487.770000000001 393.41 7487.630000000001C393.63000000000005 7487.480000000001 393.84000000000003 7487.340000000001 394.02000000000004 7487.200000000001C394.22 7487.040000000001 394.35 7486.920000000001 394.40000000000003 7486.830000000001C394.46000000000004 7486.750000000001 394.49 7486.710000000001 394.49 7486.700000000001C394.49 7486.610000000001 394.44 7486.450000000001 394.35 7486.240000000001C394.26000000000005 7486.030000000001 394.13 7485.77 393.95000000000005 7485.460000000001C393.78000000000003 7485.150000000001 393.57000000000005 7484.810000000001 393.31000000000006 7484.430000000001C393.06000000000006 7484.040000000001 392.76000000000005 7483.630000000001 392.44000000000005 7483.200000000002C391.65000000000003 7482.190000000001 391.01000000000005 7481.480000000001 390.52000000000004 7481.060000000001C390.03000000000003 7480.6500000000015 389.71000000000004 7480.430000000001 389.58000000000004 7480.410000000002C389.39000000000004 7480.410000000002 389.06000000000006 7480.530000000002 388.61 7480.760000000002Z " fill="#909090" fill-opacity="1" transform="matrix(1,0,0,1,-384,-7479)"></path></svg>