<svg id="SvgjsSvg1097" xmlns="http://www.w3.org/2000/svg" version="1.1" xmlns:xlink="http://www.w3.org/1999/xlink" xmlns:svgjs="http://svgjs.com/svgjs" width="28" height="28"><defs id="SvgjsDefs1098"></defs><path id="SvgjsPath1099" d="M1259 631C1259 630.44772 1259.44772 630 1260 630C1260.55228 630 1261 630.44772 1261 631C1261 631.55228 1260.55228 632 1260 632C1259.44772 632 1259 631.55228 1259 631Z " fill="#909090" fill-opacity="1" transform="matrix(1,0,0,1,-1246,-627)"></path><path id="SvgjsPath1100" d="M1246 641C1246 633.29 1252.29 627 1260 627C1267.71 627 1274 633.24 1274 640.94C1274 648.6500000000001 1267.71 655 1260 655C1252.29 655 1246 648.71 1246 641ZM1247.76 640.94C1247.76 647.71 1253.24 653.1800000000001 1260 653.1800000000001C1266.76 653.1800000000001 1272.24 647.71 1272.24 640.94C1272.24 634.24 1266.76 628.71 1260 628.71C1253.24 628.71 1247.76 634.1800000000001 1247.76 640.94Z " fill="#909090" fill-opacity="1" transform="matrix(1,0,0,1,-1246,-627)"></path><path id="SvgjsPath1101" d="M1259 651C1259 650.44772 1259.44772 650 1260 650C1260.55228 650 1261 650.44772 1261 651C1261 651.55228 1260.55228 652 1260 652C1259.44772 652 1259 651.55228 1259 651Z " fill="#909090" fill-opacity="1" transform="matrix(1,0,0,1,-1246,-627)"></path><path id="SvgjsPath1102" d="M1269 641C1269 640.44772 1269.44772 640 1270 640C1270.55228 640 1271 640.44772 1271 641C1271 641.55228 1270.55228 642 1270 642C1269.44772 642 1269 641.55228 1269 641Z " fill="#909090" fill-opacity="1" transform="matrix(1,0,0,1,-1246,-627)"></path><path id="SvgjsPath1103" d="M1249 641C1249 640.44772 1249.44772 640 1250 640C1250.55228 640 1251 640.44772 1251 641C1251 641.55228 1250.55228 642 1250 642C1249.44772 642 1249 641.55228 1249 641Z " fill="#909090" fill-opacity="1" transform="matrix(1,0,0,1,-1246,-627)"></path><path id="SvgjsPath1104" d="M1259.59 643C1259.36 643 1259.1399999999999 642.94 1258.97 642.75L1256.25 639.66C1255.92 639.29 1255.92 638.74 1256.25 638.37C1256.59 638 1257.1 638 1257.44 638.37L1259.5900000000001 640.71L1264.5600000000002 635.2800000000001C1264.9 634.9100000000001 1265.41 634.9100000000001 1265.7500000000002 635.2800000000001C1266.0800000000002 635.6500000000001 1266.0800000000002 636.2 1265.7500000000002 636.58L1260.2100000000003 642.69C1260.0400000000002 642.8800000000001 1259.8100000000002 643 1259.5900000000004 643Z " fill="#909090" fill-opacity="1" transform="matrix(1,0,0,1,-1246,-627)"></path></svg>