<svg id="SvgjsSvg1000" xmlns="http://www.w3.org/2000/svg" version="1.1" xmlns:xlink="http://www.w3.org/1999/xlink" xmlns:svgjs="http://svgjs.com/svgjs" width="52" height="34"><defs id="SvgjsDefs1001"></defs><path id="SvgjsPath1007" d="M1217.32 3448.47C1217.26 3448.4399999999996 1217.2 3448.41 1217.1499999999999 3448.3599999999997C1217.05 3448.2599999999998 1216.9999999999998 3448.14 1216.9999999999998 3447.9999999999995C1216.9999999999998 3447.8699999999994 1217.0499999999997 3447.7499999999995 1217.1499999999999 3447.6499999999996L1220.2099999999998 3444.5799999999995C1220.4699999999998 3444.3299999999995 1220.6599999999999 3444.0399999999995 1220.7999999999997 3443.7099999999996C1220.9399999999998 3443.3799999999997 1221.0099999999998 3443.0399999999995 1221.0099999999998 3442.6799999999994C1221.0099999999998 3442.3199999999993 1220.9399999999998 3441.9799999999996 1220.7999999999997 3441.6599999999994C1220.6599999999996 3441.3299999999995 1220.4699999999998 3441.0399999999995 1220.2099999999998 3440.7899999999995C1219.9499999999998 3440.5299999999993 1219.6599999999999 3440.3299999999995 1219.3299999999997 3440.1999999999994C1218.9999999999998 3440.0699999999993 1218.6699999999996 3440.0099999999993 1218.3199999999997 3440.0099999999993C1217.9799999999998 3440.0099999999993 1217.6399999999996 3440.0699999999993 1217.3099999999997 3440.1999999999994C1216.9799999999998 3440.3299999999995 1216.6899999999998 3440.5299999999993 1216.4299999999996 3440.7899999999995L1213.3599999999997 3443.8499999999995C1213.2599999999998 3443.9499999999994 1213.1399999999996 3443.9999999999995 1212.9999999999998 3443.9999999999995C1212.8599999999997 3443.9999999999995 1212.7399999999998 3443.9499999999994 1212.6499999999999 3443.8499999999995C1212.55 3443.7599999999993 1212.4999999999998 3443.6399999999994 1212.4999999999998 3443.4999999999995C1212.4999999999998 3443.3699999999994 1212.5499999999997 3443.2499999999995 1212.6499999999999 3443.1499999999996L1215.7199999999998 3440.0799999999995C1216.0799999999997 3439.7299999999996 1216.4899999999998 3439.4599999999996 1216.9399999999998 3439.2699999999995C1217.3899999999999 3439.0899999999997 1217.85 3438.9999999999995 1218.33 3438.9999999999995C1218.8 3438.9999999999995 1219.26 3439.0899999999997 1219.71 3439.2699999999995C1220.16 3439.4599999999996 1220.57 3439.7299999999996 1220.93 3440.0799999999995C1221.27 3440.4299999999994 1221.54 3440.8299999999995 1221.72 3441.2799999999993C1221.91 3441.7199999999993 1222 3442.189999999999 1222 3442.6799999999994C1222 3443.1799999999994 1221.91 3443.649999999999 1221.72 3444.0899999999992C1221.54 3444.539999999999 1221.27 3444.939999999999 1220.93 3445.289999999999L1217.8600000000001 3448.359999999999C1217.8100000000002 3448.4099999999994 1217.7500000000002 3448.439999999999 1217.69 3448.4699999999993C1217.63 3448.4899999999993 1217.5700000000002 3448.4999999999995 1217.5 3448.4999999999995C1217.44 3448.4999999999995 1217.38 3448.4899999999993 1217.32 3448.4699999999993ZM1207.28 3455.72C1206.83 3455.54 1206.43 3455.27 1206.08 3454.93C1205.73 3454.56 1205.46 3454.1499999999996 1205.28 3453.7C1205.1 3453.25 1205.01 3452.79 1205.01 3452.3199999999997C1205.01 3451.85 1205.1 3451.39 1205.28 3450.93C1205.46 3450.48 1205.73 3450.0699999999997 1206.08 3449.71L1209.1499999999999 3446.65C1209.2499999999998 3446.55 1209.37 3446.5 1209.4999999999998 3446.5C1209.6399999999999 3446.5 1209.7599999999998 3446.55 1209.8499999999997 3446.65C1209.9499999999996 3446.7400000000002 1209.9999999999998 3446.86 1209.9999999999998 3447C1209.9999999999998 3447.14 1209.9499999999998 3447.26 1209.8499999999997 3447.36L1206.7899999999997 3450.4300000000003C1206.5299999999997 3450.6900000000005 1206.3299999999997 3450.9800000000005 1206.1999999999998 3451.3100000000004C1206.0699999999997 3451.6400000000003 1206.0099999999998 3451.9800000000005 1206.0099999999998 3452.3200000000006C1206.0099999999998 3452.6700000000005 1206.0699999999997 3453.0000000000005 1206.1999999999998 3453.330000000001C1206.33 3453.6600000000008 1206.5299999999997 3453.9500000000007 1206.7899999999997 3454.210000000001C1207.0399999999997 3454.470000000001 1207.3299999999997 3454.6600000000008 1207.6599999999996 3454.800000000001C1207.9799999999996 3454.940000000001 1208.3199999999997 3455.010000000001 1208.6799999999996 3455.010000000001C1209.0399999999995 3455.010000000001 1209.3799999999997 3454.940000000001 1209.7099999999996 3454.800000000001C1210.0399999999995 3454.660000000001 1210.3299999999995 3454.470000000001 1210.5899999999997 3454.210000000001L1213.6499999999996 3451.150000000001C1213.7499999999995 3451.050000000001 1213.8699999999997 3451.000000000001 1213.9999999999995 3451.000000000001C1214.1399999999996 3451.000000000001 1214.2599999999995 3451.050000000001 1214.3599999999994 3451.150000000001C1214.4499999999994 3451.250000000001 1214.4999999999995 3451.360000000001 1214.4999999999995 3451.500000000001C1214.4999999999995 3451.640000000001 1214.4499999999996 3451.750000000001 1214.3599999999994 3451.850000000001L1211.2899999999995 3454.9300000000007C1210.9399999999996 3455.270000000001 1210.5499999999995 3455.540000000001 1210.0999999999995 3455.7200000000007C1209.6499999999994 3455.9100000000008 1209.1799999999994 3456.000000000001 1208.6799999999994 3456.000000000001C1208.1899999999994 3456.000000000001 1207.7199999999993 3455.9100000000008 1207.2799999999993 3455.7200000000007ZM1209.31 3443.97C1209.25 3443.9399999999996 1209.2 3443.91 1209.1499999999999 3443.85L1207.1499999999999 3441.85C1207.05 3441.75 1206.9999999999998 3441.64 1206.9999999999998 3441.5C1206.9999999999998 3441.36 1207.0499999999997 3441.25 1207.1499999999999 3441.15C1207.2499999999998 3441.05 1207.36 3441 1207.4999999999998 3441C1207.6399999999999 3441 1207.7599999999998 3441.05 1207.8599999999997 3441.15L1209.8499999999997 3443.15C1209.9499999999996 3443.25 1209.9999999999998 3443.37 1209.9999999999998 3443.5C1209.9999999999998 3443.64 1209.9499999999998 3443.76 1209.8499999999997 3443.85C1209.8099999999997 3443.91 1209.7499999999998 3443.94 1209.6899999999996 3443.97C1209.6299999999997 3443.99 1209.5699999999997 3444 1209.4999999999995 3444C1209.4399999999996 3444 1209.3699999999994 3443.99 1209.3099999999995 3443.97ZM1219.31 3453.97C1219.25 3453.9399999999996 1219.2 3453.91 1219.1499999999999 3453.85L1217.1499999999999 3451.85C1217.05 3451.75 1216.9999999999998 3451.64 1216.9999999999998 3451.5C1216.9999999999998 3451.36 1217.0499999999997 3451.25 1217.1499999999999 3451.15C1217.2499999999998 3451.05 1217.36 3451 1217.4999999999998 3451C1217.6399999999999 3451 1217.7599999999998 3451.05 1217.8599999999997 3451.15L1219.8499999999997 3453.15C1219.9499999999996 3453.25 1219.9999999999998 3453.37 1219.9999999999998 3453.5C1219.9999999999998 3453.64 1219.9499999999998 3453.76 1219.8499999999997 3453.85C1219.8099999999997 3453.91 1219.7499999999998 3453.94 1219.6899999999996 3453.97C1219.6299999999997 3453.99 1219.5699999999997 3454 1219.4999999999995 3454C1219.4399999999996 3454 1219.3699999999994 3453.99 1219.3099999999995 3453.97ZM1218.51 3450.01C1218.37 3450.01 1218.25 3449.96 1218.15 3449.86C1218.0600000000002 3449.76 1218.01 3449.6400000000003 1218.01 3449.5C1218.01 3449.36 1218.06 3449.24 1218.15 3449.15C1218.25 3449.05 1218.3700000000001 3449 1218.51 3449L1221.5 3449C1221.64 3449 1221.76 3449.05 1221.86 3449.15C1221.9499999999998 3449.2400000000002 1222 3449.36 1222 3449.5C1222 3449.64 1221.95 3449.76 1221.86 3449.86C1221.76 3449.96 1221.6399999999999 3450.01 1221.5 3450.01ZM1211.15 3442.86C1211.0500000000002 3442.76 1211.01 3442.6400000000003 1211.01 3442.51L1211.01 3439.5C1211.01 3439.36 1211.05 3439.24 1211.15 3439.15C1211.25 3439.05 1211.3700000000001 3439 1211.5 3439C1211.64 3439 1211.76 3439.05 1211.86 3439.15C1211.9499999999998 3439.2400000000002 1212 3439.36 1212 3439.5L1212 3442.51C1212 3442.6400000000003 1211.95 3442.76 1211.86 3442.86C1211.76 3442.96 1211.6399999999999 3443 1211.5 3443C1211.37 3443 1211.25 3442.96 1211.15 3442.86ZM1205.51 3446C1205.36 3446 1205.24 3445.95 1205.15 3445.86C1205.0500000000002 3445.76 1205 3445.6400000000003 1205 3445.5C1205 3445.37 1205.05 3445.25 1205.15 3445.15C1205.24 3445.05 1205.3600000000001 3445.01 1205.51 3445.01L1208.51 3445.01C1208.64 3445.01 1208.76 3445.05 1208.86 3445.15C1208.9599999999998 3445.25 1209 3445.37 1209 3445.5C1209 3445.64 1208.96 3445.76 1208.86 3445.86C1208.76 3445.9500000000003 1208.6399999999999 3446 1208.51 3446ZM1215.51 3456C1215.64 3456 1215.76 3455.95 1215.86 3455.86C1215.9599999999998 3455.76 1216.01 3455.6400000000003 1216.01 3455.5L1216.01 3452.51C1216.01 3452.36 1215.96 3452.2400000000002 1215.86 3452.1400000000003C1215.76 3452.05 1215.6399999999999 3452.0000000000005 1215.51 3452.0000000000005C1215.36 3452.0000000000005 1215.24 3452.0500000000006 1215.15 3452.1400000000003C1215.0500000000002 3452.2400000000002 1215 3452.36 1215 3452.51L1215 3455.5C1215 3455.64 1215.05 3455.76 1215.15 3455.86C1215.24 3455.9500000000003 1215.3600000000001 3456 1215.51 3456Z " fill="#909090" fill-opacity="1" transform="matrix(1,0,0,1,-1170,-3439)"></path><path id="SvgjsPath1008" d="M1193.11 3467.39C1193.6799999999998 3467.39 1194.1699999999998 3467.19 1194.58 3466.7799999999997C1194.99 3466.37 1195.1999999999998 3465.87 1195.1999999999998 3465.29L1195.1999999999998 3454.09C1195.1999999999998 3453.52 1194.9899999999998 3453.03 1194.58 3452.6200000000003C1194.1699999999998 3452.2100000000005 1193.6799999999998 3452.0000000000005 1193.11 3452.0000000000005L1174.8899999999999 3452.0000000000005C1174.32 3452.0000000000005 1173.83 3452.2100000000005 1173.4199999999998 3452.6200000000003C1173.0099999999998 3453.03 1172.8 3453.5200000000004 1172.8 3454.09L1172.8 3465.29C1172.8 3465.87 1173.01 3466.37 1173.4199999999998 3466.7799999999997C1173.83 3467.1899999999996 1174.32 3467.39 1174.8899999999999 3467.39ZM1174.2 3454.09C1174.2 3453.9 1174.27 3453.7400000000002 1174.4 3453.6000000000004C1174.5400000000002 3453.4600000000005 1174.7 3453.3900000000003 1174.89 3453.3900000000003L1193.1100000000001 3453.3900000000003C1193.3000000000002 3453.3900000000003 1193.46 3453.4600000000005 1193.6000000000001 3453.6000000000004C1193.7300000000002 3453.7400000000002 1193.8000000000002 3453.9000000000005 1193.8000000000002 3454.09L1193.8000000000002 3465.29C1193.8000000000002 3465.49 1193.7300000000002 3465.66 1193.6000000000001 3465.79C1193.46 3465.93 1193.3000000000002 3466 1193.1100000000001 3466L1174.89 3466C1174.7 3466 1174.5400000000002 3465.93 1174.4 3465.79C1174.27 3465.66 1174.2 3465.49 1174.2 3465.29ZM1170.7 3468.79C1170.51 3468.79 1170.3400000000001 3468.86 1170.21 3468.99C1170.07 3469.1299999999997 1170 3469.2999999999997 1170 3469.5L1170 3470.89C1170 3471.48 1170.21 3471.97 1170.62 3472.3799999999997C1171.03 3472.7899999999995 1171.52 3472.9999999999995 1172.11 3472.9999999999995L1195.8899999999999 3472.9999999999995C1196.4799999999998 3472.9999999999995 1196.9699999999998 3472.7899999999995 1197.3799999999999 3472.3799999999997C1197.79 3471.97 1197.9999999999998 3471.4799999999996 1197.9999999999998 3470.89L1197.9999999999998 3469.5C1197.9999999999998 3469.3 1197.9299999999998 3469.13 1197.7899999999997 3468.99C1197.6599999999996 3468.8599999999997 1197.4899999999998 3468.79 1197.2999999999997 3468.79ZM1172.11 3471.59C1171.8999999999999 3471.59 1171.74 3471.52 1171.6 3471.3900000000003C1171.4599999999998 3471.2500000000005 1171.3899999999999 3471.09 1171.3899999999999 3470.8900000000003L1171.3899999999999 3470.2000000000003L1196.61 3470.2000000000003L1196.61 3470.8900000000003C1196.61 3471.09 1196.54 3471.2500000000005 1196.3999999999999 3471.3900000000003C1196.2599999999998 3471.5200000000004 1196.1 3471.59 1195.8899999999999 3471.59Z " fill="#909090" fill-opacity="1" transform="matrix(1,0,0,1,-1170,-3439)"></path></svg>