<svg id="SvgjsSvg1017" xmlns="http://www.w3.org/2000/svg" version="1.1" xmlns:xlink="http://www.w3.org/1999/xlink" xmlns:svgjs="http://svgjs.com/svgjs" width="58" height="43"><defs id="SvgjsDefs1018"></defs><path id="SvgjsPath1019" d="M1551.35939 2359.70061L1551.35939 2344.20061C1551.35939 2343.77061 1551.0093900000002 2343.4206099999997 1550.58939 2343.41061C1549.5193900000002 2343.4006099999997 1548.64939 2342.21061 1548.64939 2340.75061C1548.64939 2339.3006100000002 1549.51939 2338.10061 1550.58939 2338.09061C1551.0093900000002 2338.09061 1551.35939 2337.7406100000003 1551.35939 2337.3006100000002L1551.35939 2331.36061C1551.35939 2330.92061 1551.0093900000002 2330.57061 1550.57939 2330.57061L1537.7093900000002 2330.57061C1537.2793900000001 2330.57061 1536.9293900000002 2330.92061 1536.9293900000002 2331.36061L1536.9293900000002 2337.3006100000002C1536.9293900000002 2337.73061 1537.2793900000001 2338.09061 1537.6993900000002 2338.09061C1538.7693900000002 2338.11061 1539.6293900000003 2339.3006100000002 1539.6293900000003 2340.75061C1539.6293900000003 2342.21061 1538.7693900000004 2343.40061 1537.6993900000002 2343.41061C1537.2793900000001 2343.42061 1536.9293900000002 2343.77061 1536.9293900000002 2344.20061L1536.9293900000002 2346.05061L1524.7593900000002 2346.05061L1524.7593900000002 2341.0406099999996C1524.7593900000002 2339.0606099999995 1523.1593900000003 2337.4506099999994 1521.1893900000002 2337.4506099999994C1520.2493900000002 2337.4506099999994 1519.3993900000003 2337.8206099999993 1518.7593900000002 2338.420609999999C1518.1593900000003 2337.3006099999993 1516.9793900000002 2336.5306099999993 1515.62939 2336.5306099999993C1514.2593900000002 2336.5306099999993 1513.07939 2337.3106099999995 1512.47939 2338.440609999999C1511.8393899999999 2337.850609999999 1510.98939 2337.4906099999994 1510.05939 2337.4906099999994C1508.28939 2337.4906099999994 1506.8193899999999 2338.7906099999996 1506.53939 2340.4906099999994C1505.95939 2340.0806099999995 1505.24939 2339.8406099999993 1504.48939 2339.8406099999993C1503.53939 2339.8406099999993 1502.63939 2340.210609999999 1501.96939 2340.8906099999995C1501.29939 2341.5706099999993 1500.91939 2342.4706099999994 1500.91939 2343.4306099999994L1500.91939 2346.0506099999993L1498.63939 2346.0506099999993C1496.31939 2346.0506099999993 1494.42939 2347.9506099999994 1494.42939 2350.290609999999C1494.42939 2352.6306099999993 1496.31939 2354.530609999999 1498.63939 2354.530609999999L1500.94939 2354.530609999999C1501.12939 2358.320609999999 1502.47939 2361.990609999999 1504.80939 2364.9806099999987L1504.80939 2367.650609999999C1504.80939 2368.090609999999 1505.1593899999998 2368.4406099999987 1505.5893899999999 2368.4406099999987C1506.01939 2368.4406099999987 1506.3693899999998 2368.090609999999 1506.3693899999998 2367.650609999999L1506.3693899999998 2364.700609999999C1506.3693899999998 2364.520609999999 1506.30939 2364.340609999999 1506.1993899999998 2364.200609999999C1503.9893899999997 2361.460609999999 1502.6993899999998 2358.050609999999 1502.5093899999997 2354.530609999999L1514.4893899999997 2354.530609999999C1513.5793899999996 2355.6706099999988 1513.0293899999997 2357.110609999999 1513.0293899999997 2358.680609999999C1513.0293899999997 2359.120609999999 1513.3793899999996 2359.470609999999 1513.8193899999997 2359.470609999999C1514.2493899999997 2359.470609999999 1514.5993899999996 2359.120609999999 1514.5993899999996 2358.680609999999C1514.5993899999996 2356.010609999999 1516.6693899999996 2353.820609999999 1519.2693899999997 2353.660609999999C1519.3393899999996 2353.660609999999 1523.5293899999997 2353.660609999999 1523.5293899999997 2353.660609999999C1523.9593899999998 2353.660609999999 1524.3093899999997 2353.310609999999 1524.3093899999997 2352.880609999999C1524.3093899999997 2352.4406099999987 1523.9593899999998 2352.090609999999 1523.5293899999997 2352.090609999999C1523.5293899999997 2352.090609999999 1519.3893899999996 2352.070609999999 1519.2893899999997 2352.0806099999986C1518.1593899999996 2351.9906099999985 1517.2593899999997 2351.0306099999984 1517.2593899999997 2349.860609999999C1517.2593899999997 2348.630609999999 1518.2493899999997 2347.630609999999 1519.4693899999997 2347.630609999999L1526.0293899999997 2347.630609999999C1526.7693899999997 2347.630609999999 1527.3693899999996 2348.240609999999 1527.3693899999996 2348.990609999999L1527.3693899999996 2355.640609999999C1527.3693899999996 2358.210609999999 1526.1293899999996 2360.630609999999 1524.0593899999997 2362.120609999999L1524.0293899999997 2362.140609999999C1522.3793899999996 2363.320609999999 1521.3993899999996 2365.250609999999 1521.3993899999996 2367.290609999999C1521.3993899999996 2367.730609999999 1521.7393899999995 2368.080609999999 1522.1793899999996 2368.080609999999C1522.6093899999996 2368.080609999999 1522.9593899999995 2367.730609999999 1522.9593899999995 2367.290609999999C1522.9593899999995 2365.760609999999 1523.6993899999995 2364.310609999999 1524.9393899999995 2363.420609999999L1524.9593899999995 2363.410609999999C1527.4493899999995 2361.620609999999 1528.9293899999996 2358.720609999999 1528.9293899999996 2355.640609999999L1528.9293899999996 2354.530609999999L1536.9293899999996 2354.530609999999L1536.9293899999996 2356.4206099999988C1536.9293899999996 2356.860609999999 1537.2793899999995 2357.2106099999987 1537.7093899999995 2357.2106099999987L1542.1193899999996 2357.2106099999987C1542.8393899999996 2360.7106099999987 1542.5393899999997 2366.9306099999985 1540.8793899999996 2371.2906099999987C1540.7693899999997 2371.5606099999986 1540.8293899999996 2371.880609999999 1541.0293899999997 2372.1006099999986C1541.2193899999997 2372.3206099999984 1541.5193899999997 2372.4106099999985 1541.8093899999997 2372.3306099999986C1547.4293899999996 2370.860609999999 1551.3593899999996 2365.6706099999988 1551.3593899999996 2359.7006099999985ZM1538.49939 2345.21061L1549.79939 2345.21061L1549.79939 2355.64061L1538.49939 2355.6306099999997ZM1498.63939 2352.96061C1497.17939 2352.96061 1495.98939 2351.7606100000003 1495.98939 2350.29061C1495.98939 2348.82061 1497.17939 2347.63061 1498.63939 2347.63061L1500.91939 2347.63061L1500.91939 2348.88061C1500.91939 2350.86061 1502.51939 2352.4706100000003 1504.48939 2352.4706100000003C1505.64939 2352.4706100000003 1506.68939 2351.9106100000004 1507.3393899999999 2351.0306100000003C1507.99939 2351.8106100000005 1508.96939 2352.3006100000002 1510.05939 2352.3006100000002C1511.1793899999998 2352.3006100000002 1512.18939 2351.7806100000003 1512.8393899999999 2350.9506100000003C1513.49939 2351.7806100000003 1514.49939 2352.3106100000005 1515.6293899999998 2352.3106100000005C1515.9193899999998 2352.3106100000005 1516.2093899999998 2352.2706100000005 1516.4893899999997 2352.2006100000003C1516.6193899999998 2352.36061 1516.7593899999997 2352.5106100000003 1516.9093899999998 2352.65061C1516.7093899999998 2352.7406100000003 1516.5093899999997 2352.85061 1516.3193899999999 2352.96061ZM1515.78939 2350.72061C1515.73939 2350.73061 1515.67939 2350.73061 1515.6293899999998 2350.73061C1514.51939 2350.73061 1513.6293899999998 2349.83061 1513.6193899999998 2348.72061C1513.6193899999998 2348.7106099999996 1513.6193899999998 2348.7106099999996 1513.6193899999998 2348.7106099999996L1513.6193899999998 2340.1306099999997C1513.6193899999998 2339.01061 1514.51939 2338.1106099999997 1515.6293899999998 2338.1106099999997C1516.7293899999997 2338.1106099999997 1517.6293899999998 2339.01061 1517.6293899999998 2340.1306099999997L1517.6293899999998 2346.5406099999996C1516.4693899999997 2347.1906099999997 1515.6893899999998 2348.4306099999994 1515.6893899999998 2349.8606099999997C1515.6893899999998 2350.1506099999997 1515.7293899999997 2350.4406099999997 1515.7893899999997 2350.72061ZM1549.79939 2336.52061L1538.49939 2336.52061L1538.49939 2332.15061L1549.79939 2332.15061ZM1512.05939 2341.08061C1512.05939 2341.08061 1512.05939 2348.71061 1512.05939 2348.72061C1512.05939 2349.83061 1511.1593899999998 2350.73061 1510.05939 2350.73061C1508.94939 2350.73061 1508.05939 2349.82061 1508.05939 2348.71061L1508.05939 2341.08061C1508.05939 2339.97061 1508.94939 2339.06061 1510.05939 2339.06061C1511.1593899999998 2339.06061 1512.05939 2339.97061 1512.05939 2341.08061ZM1528.92939 2348.99061C1528.92939 2348.50061 1528.8093900000001 2348.03061 1528.59939 2347.6306099999997L1536.92939 2347.6306099999997L1536.92939 2352.9606099999996L1528.92939 2352.9606099999996ZM1540.42939 2338.09061L1547.86939 2338.09061C1547.37939 2338.82061 1547.08939 2339.75061 1547.08939 2340.75061C1547.08939 2341.86061 1547.44939 2342.87061 1548.0293900000001 2343.63061L1540.2793900000001 2343.63061C1540.84939 2342.88061 1541.1893900000002 2341.87061 1541.1893900000002 2340.75061C1541.1893900000002 2339.74061 1540.9093900000003 2338.82061 1540.4293900000002 2338.09061ZM1503.06939 2342.00061C1503.4493900000002 2341.62061 1503.9593900000002 2341.41061 1504.4893900000002 2341.41061C1505.58939 2341.41061 1506.4893900000002 2342.3206099999998 1506.4893900000002 2343.43061L1506.4893900000002 2348.8806099999997C1506.4893900000002 2349.99061 1505.58939 2350.9006099999997 1504.4893900000002 2350.9006099999997C1503.3893900000003 2350.9006099999997 1502.4893900000002 2349.99061 1502.4893900000002 2348.8806099999997L1502.4893900000002 2343.43061C1502.4893900000002 2342.89061 1502.6993900000002 2342.3806099999997 1503.06939 2342.00061ZM1523.19939 2346.05061L1519.46939 2346.05061C1519.37939 2346.05061 1519.27939 2346.06061 1519.18939 2346.06061L1519.18939 2341.04061C1519.18939 2339.93061 1520.08939 2339.02061 1521.18939 2339.02061C1522.29939 2339.02061 1523.19939 2339.93061 1523.19939 2341.04061ZM1549.79939 2357.21061L1549.79939 2359.70061C1549.79939 2364.4206099999997 1547.00939 2368.5906099999997 1542.8493899999999 2370.3206099999998C1544.1593899999998 2365.93061 1544.3193899999999 2360.5906099999997 1543.7093899999998 2357.2106099999996Z " fill="#909090" fill-opacity="1" transform="matrix(1,0,0,1,-1494,-2330)"></path></svg>