<svg id="SvgjsSvg1011" xmlns="http://www.w3.org/2000/svg" version="1.1" xmlns:xlink="http://www.w3.org/1999/xlink" xmlns:svgjs="http://svgjs.com/svgjs" width="46" height="44"><defs id="SvgjsDefs1012"></defs><path id="SvgjsPath1013" d="M787.82 2351.53C787.3100000000001 2350.5400000000004 786.2900000000001 2349.86 785.1 2349.86C784.46 2349.86 783.87 2350.06 783.38 2350.3900000000003L783.38 2348.9400000000005L796.33 2348.9400000000005C796.7 2348.9400000000005 797 2348.6400000000003 797 2348.2700000000004C797 2347.9000000000005 796.7 2347.6000000000004 796.33 2347.6000000000004L783.38 2347.6000000000004L783.38 2345.1800000000003L785.63 2345.1800000000003C787.66 2345.1800000000003 789.31 2343.53 789.31 2341.4900000000002L789.31 2329.69C789.31 2327.66 787.66 2326 785.63 2326L762.37 2326C760.34 2326 758.69 2327.66 758.69 2329.69L758.69 2341.4900000000002C758.69 2343.53 760.34 2345.1800000000003 762.37 2345.1800000000003L777.6 2345.1800000000003L777.6 2346.78C777.15 2346.5 776.62 2346.3300000000004 776.0500000000001 2346.3300000000004C774.96 2346.3300000000004 774.0200000000001 2346.9300000000003 773.5200000000001 2347.82C773.0100000000001 2347.36 772.3400000000001 2347.09 771.6100000000001 2347.09C771.0000000000001 2347.09 770.4400000000002 2347.28 769.9700000000001 2347.6000000000004L751.6700000000002 2347.6000000000004C751.3000000000002 2347.6000000000004 751.0000000000002 2347.9000000000005 751.0000000000002 2348.2700000000004C751.0000000000002 2348.6400000000003 751.3000000000002 2348.9400000000005 751.6700000000002 2348.9400000000005L768.9100000000002 2348.9400000000005C768.8500000000003 2349.1000000000004 768.8000000000002 2349.2700000000004 768.7700000000002 2349.4400000000005C768.3100000000002 2349.1300000000006 767.7600000000002 2348.9500000000007 767.1700000000002 2348.9500000000007C765.6800000000002 2348.9500000000007 764.4600000000002 2350.080000000001 764.3000000000002 2351.5300000000007L751.6700000000002 2351.5300000000007C751.3000000000002 2351.5300000000007 751.0000000000002 2351.830000000001 751.0000000000002 2352.2000000000007C751.0000000000002 2352.5700000000006 751.3000000000002 2352.870000000001 751.6700000000002 2352.870000000001L764.2800000000002 2352.870000000001L764.2800000000002 2359.9500000000007C764.2800000000002 2363.2800000000007 765.4300000000002 2366.540000000001 767.5300000000002 2369.1300000000006C767.6600000000002 2369.2900000000004 767.8500000000003 2369.3800000000006 768.0500000000002 2369.3800000000006C768.2000000000002 2369.3800000000006 768.3500000000001 2369.3300000000004 768.4700000000001 2369.2300000000005C768.7600000000001 2368.9900000000007 768.8000000000002 2368.5700000000006 768.5700000000002 2368.2800000000007C766.6700000000002 2365.9300000000007 765.6200000000001 2362.9800000000005 765.6200000000001 2359.9500000000007L765.6200000000001 2351.850000000001C765.6200000000001 2350.9900000000007 766.3200000000002 2350.290000000001 767.1700000000001 2350.290000000001C768.0200000000001 2350.290000000001 768.72 2350.9900000000007 768.72 2351.850000000001L768.72 2354.540000000001C768.72 2354.9100000000008 769.02 2355.210000000001 769.39 2355.210000000001C769.76 2355.210000000001 770.06 2354.9100000000008 770.06 2354.540000000001L770.06 2349.980000000001C770.06 2349.130000000001 770.75 2348.4300000000007 771.6099999999999 2348.4300000000007C772.4599999999999 2348.4300000000007 773.1599999999999 2349.1300000000006 773.1599999999999 2349.980000000001L773.1599999999999 2353.600000000001C773.1599999999999 2353.980000000001 773.4599999999998 2354.2800000000007 773.8299999999998 2354.2800000000007C774.1999999999998 2354.2800000000007 774.4999999999998 2353.9800000000005 774.4999999999998 2353.600000000001L774.4999999999998 2349.230000000001C774.4999999999998 2348.370000000001 775.1899999999998 2347.670000000001 776.0499999999997 2347.670000000001C776.8999999999997 2347.670000000001 777.5999999999997 2348.370000000001 777.5999999999997 2349.230000000001L777.5999999999997 2354.330000000001C777.5999999999997 2354.7000000000007 777.8999999999996 2355.000000000001 778.2699999999996 2355.000000000001C778.6399999999996 2355.000000000001 778.9399999999996 2354.7000000000007 778.9399999999996 2354.330000000001L778.9399999999996 2339.630000000001C778.9399999999996 2338.780000000001 779.6299999999997 2338.080000000001 780.4899999999996 2338.080000000001C781.3399999999996 2338.080000000001 782.0399999999995 2338.7800000000007 782.0399999999995 2339.630000000001L782.0399999999995 2359.090000000001C782.0399999999995 2359.460000000001 782.3399999999995 2359.770000000001 782.7099999999995 2359.770000000001C783.0799999999995 2359.770000000001 783.3799999999994 2359.460000000001 783.3799999999994 2359.090000000001L783.3799999999994 2352.930000000001C783.3799999999994 2351.9800000000014 784.1499999999994 2351.200000000001 785.0999999999995 2351.200000000001C786.0499999999995 2351.200000000001 786.8199999999995 2351.9800000000014 786.8199999999995 2352.930000000001L786.8199999999995 2360.6900000000014C786.8199999999995 2363.0100000000016 785.7399999999994 2365.1400000000012 784.0199999999995 2366.5300000000016C783.1299999999995 2367.2500000000014 783.8899999999995 2368.4000000000015 784.9899999999996 2367.4800000000014C785.4299999999996 2367.1100000000015 785.8299999999996 2366.700000000001 786.1999999999996 2366.2600000000016C787.4599999999996 2364.6900000000014 788.1599999999996 2362.7100000000014 788.1599999999996 2360.6900000000014L788.1599999999996 2352.930000000001C788.1599999999996 2352.910000000001 796.3299999999996 2352.8700000000013 796.3299999999996 2352.8700000000013C796.6999999999996 2352.8700000000013 796.9999999999995 2352.570000000001 796.9999999999995 2352.200000000001C796.9999999999995 2351.8300000000013 796.6999999999996 2351.530000000001 796.3299999999996 2351.530000000001ZM760.03 2340.43L773.3299999999999 2340.43L773.3299999999999 2343.8399999999997L762.3699999999999 2343.8399999999997C761.0799999999999 2343.8399999999997 760.0299999999999 2342.7899999999995 760.0299999999999 2341.49ZM783.38 2343.84L783.38 2340.4300000000003L787.97 2340.4300000000003L787.97 2341.4900000000002C787.97 2342.7900000000004 786.9200000000001 2343.84 785.63 2343.84ZM774.67 2340.43L777.5999999999999 2340.43L777.5999999999999 2343.8399999999997L774.67 2343.8399999999997ZM777.65 2339.08L760.03 2339.08L760.03 2329.69C760.03 2328.4 761.0799999999999 2327.34 762.37 2327.34L785.63 2327.34C786.92 2327.34 787.97 2328.4 787.97 2329.69L787.97 2339.08L783.32 2339.08C783.07 2337.75 781.8900000000001 2336.74 780.49 2336.74C779.08 2336.74 777.91 2337.75 777.65 2339.08Z " fill="#909090" fill-opacity="1" transform="matrix(1,0,0,1,-751,-2326)"></path></svg>