<svg id="SvgjsSvg1012" xmlns="http://www.w3.org/2000/svg" version="1.1" xmlns:xlink="http://www.w3.org/1999/xlink" xmlns:svgjs="http://svgjs.com/svgjs" width="19" height="19"><defs id="SvgjsDefs1013"></defs><path id="SvgjsPath1014" d="M223 11960.5C223 11955.25329 227.25329 11951 232.5 11951C237.74671 11951 242 11955.25329 242 11960.5C242 11965.74671 237.74671 11970 232.5 11970C227.25329 11970 223 11965.74671 223 11960.5Z " fill="#9e8e84" fill-opacity="1" transform="matrix(1,0,0,1,-223,-11951)"></path><path id="SvgjsPath1015" d="M232.3 11961.76L231.18 11961L228 11963.12C228.12 11963.210000000001 228.27 11963.26 228.44 11963.26L236.15 11963.26C236.32 11963.26 236.48000000000002 11963.210000000001 236.59 11963.12L233.41 11961L232.29999999999998 11961.76Z " fill="#ffffff" fill-opacity="1" transform="matrix(1,0,0,1,-223,-11951)"></path><path id="SvgjsPath1016" d="M236.59 11958.14C236.48 11958.05 236.32 11958 236.15 11958L228.44 11958C228.27 11958 228.12 11958.05 228 11958.14L232.3 11961Z " fill="#ffffff" fill-opacity="1" transform="matrix(1,0,0,1,-223,-11951)"></path><path id="SvgjsPath1017" d="M228 11958L228 11962.15L231.11 11960.1Z " fill="#ffffff" fill-opacity="1" transform="matrix(1,0,0,1,-223,-11951)"></path><path id="SvgjsPath1018" d="M234 11960.1L237.11 11962.16L237.11 11958Z " fill="#ffffff" fill-opacity="1" transform="matrix(1,0,0,1,-223,-11951)"></path></svg>