<svg id="SvgjsSvg1042" xmlns="http://www.w3.org/2000/svg" version="1.1" xmlns:xlink="http://www.w3.org/1999/xlink" xmlns:svgjs="http://svgjs.com/svgjs" width="24" height="26"><defs id="SvgjsDefs1043"></defs><path id="SvgjsPath1044" d="M1158.53 7486.18C1158.6 7486.450000000001 1158.62 7486.72 1158.57 7487L1157.6299999999999 7492.64C1157.54 7493.17 1157.27 7493.64 1156.84 7494.04C1156.4099999999999 7494.45 1155.9199999999998 7494.67 1155.37 7494.71L1141.4299999999998 7495.93L1141.7699999999998 7498.01C1141.7999999999997 7498.22 1141.9199999999998 7498.400000000001 1142.0999999999997 7498.56C1142.2899999999997 7498.72 1142.4899999999998 7498.8 1142.7099999999996 7498.8L1156.7099999999996 7498.8C1156.8999999999996 7498.8 1157.0699999999995 7498.87 1157.1999999999996 7499.01C1157.3399999999997 7499.14 1157.4099999999996 7499.31 1157.4099999999996 7499.5C1157.4099999999996 7499.69 1157.3399999999997 7499.86 1157.1999999999996 7499.99C1157.0699999999995 7500.13 1156.8999999999996 7500.2 1156.7099999999996 7500.2L1142.7099999999996 7500.2C1142.1499999999996 7500.2 1141.6399999999996 7500.01 1141.1899999999996 7499.63C1140.7499999999995 7499.25 1140.4799999999996 7498.79 1140.3899999999996 7498.24L1138.0499999999997 7484.2C1138.0099999999998 7483.99 1137.8999999999996 7483.8099999999995 1137.7099999999998 7483.65C1137.5299999999997 7483.49 1137.3199999999997 7483.41 1137.11 7483.41L1135.7099999999998 7483.41C1135.5099999999998 7483.41 1135.34 7483.34 1135.2099999999998 7483.2C1135.0699999999997 7483.07 1134.9999999999998 7482.9 1134.9999999999998 7482.7C1134.9999999999998 7482.51 1135.0699999999997 7482.34 1135.2099999999998 7482.21C1135.34 7482.07 1135.5099999999998 7482 1135.7099999999998 7482L1137.11 7482C1137.6599999999999 7482 1138.1699999999998 7482.19 1138.62 7482.57C1139.07 7482.96 1139.34 7483.42 1139.4299999999998 7483.969999999999L1139.57 7484.799999999999L1156.71 7484.799999999999C1156.99 7484.799999999999 1157.26 7484.86 1157.52 7484.969999999999C1157.77 7485.089999999999 1157.99 7485.249999999999 1158.16 7485.459999999999C1158.3300000000002 7485.669999999999 1158.46 7485.909999999999 1158.53 7486.179999999999ZM1153.52 7506.98C1153.18 7506.83 1152.8799999999999 7506.629999999999 1152.62 7506.379999999999C1152.37 7506.129999999999 1152.1699999999998 7505.839999999999 1152.02 7505.499999999999C1151.8799999999999 7505.149999999999 1151.8 7504.789999999999 1151.8 7504.409999999999C1151.8 7504.019999999999 1151.8799999999999 7503.649999999999 1152.02 7503.309999999999C1152.17 7502.979999999999 1152.37 7502.6799999999985 1152.62 7502.4299999999985C1152.8799999999999 7502.169999999998 1153.1799999999998 7501.969999999998 1153.52 7501.819999999999C1153.86 7501.6799999999985 1154.22 7501.609999999999 1154.61 7501.609999999999C1154.99 7501.609999999999 1155.35 7501.6799999999985 1155.6899999999998 7501.819999999999C1156.0299999999997 7501.969999999998 1156.33 7502.169999999999 1156.59 7502.4299999999985C1156.84 7502.6799999999985 1157.04 7502.979999999999 1157.1899999999998 7503.309999999999C1157.34 7503.649999999999 1157.4099999999999 7504.019999999999 1157.4099999999999 7504.409999999999C1157.4099999999999 7504.789999999999 1157.34 7505.149999999999 1157.1899999999998 7505.499999999999C1157.0399999999997 7505.839999999999 1156.84 7506.129999999999 1156.59 7506.379999999999C1156.33 7506.629999999999 1156.03 7506.829999999999 1155.6899999999998 7506.98C1155.35 7507.12 1154.9899999999998 7507.2 1154.61 7507.2C1154.2199999999998 7507.2 1153.86 7507.12 1153.52 7506.98ZM1143.72 7506.98C1143.3700000000001 7506.83 1143.08 7506.629999999999 1142.83 7506.379999999999C1142.58 7506.129999999999 1142.3799999999999 7505.839999999999 1142.23 7505.499999999999C1142.08 7505.149999999999 1142 7504.789999999999 1142 7504.409999999999C1142 7504.019999999999 1142.08 7503.649999999999 1142.23 7503.309999999999C1142.38 7502.979999999999 1142.58 7502.6799999999985 1142.83 7502.4299999999985C1143.08 7502.169999999998 1143.37 7501.969999999998 1143.72 7501.819999999999C1144.06 7501.6799999999985 1144.42 7501.609999999999 1144.8 7501.609999999999C1145.19 7501.609999999999 1145.56 7501.6799999999985 1145.8999999999999 7501.819999999999C1146.2299999999998 7501.969999999998 1146.53 7502.169999999999 1146.79 7502.4299999999985C1147.04 7502.6799999999985 1147.24 7502.979999999999 1147.3899999999999 7503.309999999999C1147.53 7503.649999999999 1147.61 7504.019999999999 1147.61 7504.409999999999C1147.61 7504.789999999999 1147.53 7505.149999999999 1147.3899999999999 7505.499999999999C1147.2399999999998 7505.839999999999 1147.04 7506.129999999999 1146.79 7506.379999999999C1146.53 7506.629999999999 1146.23 7506.829999999999 1145.8999999999999 7506.98C1145.56 7507.12 1145.1899999999998 7507.2 1144.8 7507.2C1144.4199999999998 7507.2 1144.06 7507.12 1143.72 7506.98ZM1143.82 7503.41C1143.54 7503.68 1143.4099999999999 7504.0199999999995 1143.4099999999999 7504.41C1143.4099999999999 7504.79 1143.54 7505.12 1143.82 7505.389999999999C1144.09 7505.669999999999 1144.4199999999998 7505.799999999999 1144.8 7505.799999999999C1145.19 7505.799999999999 1145.53 7505.669999999999 1145.8 7505.389999999999C1146.07 7505.119999999999 1146.21 7504.789999999999 1146.21 7504.41C1146.21 7504.0199999999995 1146.07 7503.68 1145.8 7503.41C1145.53 7503.139999999999 1145.19 7503 1144.8 7503C1144.4199999999998 7503 1144.09 7503.14 1143.82 7503.41ZM1153.62 7503.41C1153.35 7503.68 1153.2099999999998 7504.0199999999995 1153.2099999999998 7504.41C1153.2099999999998 7504.79 1153.35 7505.12 1153.62 7505.389999999999C1153.8899999999999 7505.669999999999 1154.2199999999998 7505.799999999999 1154.61 7505.799999999999C1154.99 7505.799999999999 1155.32 7505.669999999999 1155.59 7505.389999999999C1155.86 7505.119999999999 1156 7504.789999999999 1156 7504.41C1156 7504.0199999999995 1155.86 7503.68 1155.59 7503.41C1155.32 7503.139999999999 1154.99 7503 1154.61 7503C1154.2199999999998 7503 1153.8899999999999 7503.14 1153.62 7503.41ZM1157.18 7486.55C1157.17 7486.4800000000005 1157.14 7486.42 1157.0900000000001 7486.360000000001C1157.0500000000002 7486.31 1156.9900000000002 7486.27 1156.93 7486.240000000001C1156.8700000000001 7486.210000000001 1156.79 7486.200000000001 1156.71 7486.200000000001L1139.8 7486.200000000001L1141.19 7494.550000000001L1155.25 7493.3200000000015C1155.48 7493.300000000001 1155.69 7493.200000000002 1155.89 7493.010000000001C1156.0900000000001 7492.830000000001 1156.21 7492.620000000001 1156.25 7492.4000000000015L1157.19 7486.770000000001C1157.2 7486.690000000001 1157.2 7486.6100000000015 1157.18 7486.550000000001Z " fill="#909090" fill-opacity="1" transform="matrix(1,0,0,1,-1135,-7482)"></path></svg>