<svg id="SvgjsSvg1048" xmlns="http://www.w3.org/2000/svg" version="1.1" xmlns:xlink="http://www.w3.org/1999/xlink" xmlns:svgjs="http://svgjs.com/svgjs" width="15" height="28"><defs id="SvgjsDefs1049"><clipPath id="SvgjsClipPath1052"><path id="SvgjsPath1051" d="M951 8748.5C951 8744.35786 954.35786 8741 958.5 8741L958.5 8741C962.64214 8741 966 8744.35786 966 8748.5L966 8761.5C966 8765.64214 962.64214 8769 958.5 8769L958.5 8769C954.35786 8769 951 8765.64214 951 8761.5Z " fill="#ffffff"></path></clipPath></defs><path id="SvgjsPath1050" d="M951 8748.5C951 8744.35786 954.35786 8741 958.5 8741L958.5 8741C962.64214 8741 966 8744.35786 966 8748.5L966 8761.5C966 8765.64214 962.64214 8769 958.5 8769L958.5 8769C954.35786 8769 951 8765.64214 951 8761.5Z " fill-opacity="0" fill="#ffffff" stroke-dasharray="0" stroke-linejoin="miter" stroke-linecap="butt" stroke-opacity="1" stroke="#9e8e84" stroke-miterlimit="50" stroke-width="2" clip-path="url(&quot;#SvgjsClipPath1052&quot;)" transform="matrix(1,0,0,1,-951,-8741)"></path><path id="SvgjsPath1053" d="M958 8748.5C958 8748.22386 958.22386 8748 958.5 8748L958.5 8748C958.77614 8748 959 8748.22386 959 8748.5L959 8751.5C959 8751.77614 958.77614 8752 958.5 8752L958.5 8752C958.22386 8752 958 8751.77614 958 8751.5Z " fill="#9e8e84" fill-opacity="1" transform="matrix(1,0,0,1,-951,-8741)"></path></svg>