<svg id="SvgjsSvg1083" xmlns="http://www.w3.org/2000/svg" version="1.1" xmlns:xlink="http://www.w3.org/1999/xlink" xmlns:svgjs="http://svgjs.com/svgjs" width="86" height="13"><defs id="SvgjsDefs1084"></defs><path id="SvgjsPath1085" d="M618.89 423.23L624.17 423.23L628 435.77000000000004L624.28 435.77000000000004L623.61 433.45000000000005L619.45 433.45000000000005L618.7700000000001 435.77000000000004L615.0600000000001 435.77000000000004ZM560.54 423C564.3499999999999 423 566.1999999999999 423.66 566.4599999999999 427.08C566.5199999999999 427.89 566.53 428.72999999999996 566.53 429.5C566.53 430.27 566.52 431.11 566.4599999999999 431.92C566.1999999999999 435.33000000000004 564.3499999999999 436 560.54 436C556.73 436 554.89 435.33 554.62 431.92C554.5600000000001 431.11 554.55 430.27000000000004 554.55 429.5C554.55 428.73 554.56 427.89 554.62 427.08C554.89 423.65999999999997 556.73 423 560.54 423ZM574.12 423C575.59 423 577.07 423.14 577.7 423.43C579.2800000000001 424.15000000000003 579.33 425.72 579.33 427.17L575.9300000000001 427.17C575.9300000000001 426.43 575.7600000000001 426.22 575.6200000000001 426.08000000000004C575.2700000000001 425.77000000000004 574.7700000000001 425.70000000000005 574.0500000000001 425.70000000000005C573.1700000000001 425.70000000000005 572.1500000000001 425.74000000000007 572.1500000000001 426.80000000000007C572.1500000000001 427.61000000000007 572.5000000000001 427.94000000000005 573.4300000000001 428.00000000000006C574.69 428.08000000000004 577.19 428.1600000000001 578.08 428.68000000000006C579.33 429.4100000000001 579.6500000000001 430.4100000000001 579.6500000000001 432.02000000000004C579.6500000000001 434.36 578.8100000000001 435.05 577.6400000000001 435.56000000000006C576.2800000000001 436.15000000000003 571.7600000000001 436.15000000000003 570.2900000000001 435.51000000000005C568.6500000000001 434.80000000000007 568.6200000000001 433.38000000000005 568.6200000000001 431.65000000000003L572.0200000000001 431.65000000000003C572.0200000000001 432.26000000000005 572.1000000000001 432.67 572.4000000000001 432.90000000000003C572.7300000000001 433.15000000000003 573.0400000000001 433.23 574.0500000000001 433.23C575.0100000000001 433.23 576.07 433.23 576.07 432.05C576.07 431.12 575.48 430.91 574.38 430.85C571.67 430.71000000000004 570.6899999999999 430.63 569.68 429.88C569 429.38 568.64 428.39 568.64 427.06C568.64 424.78000000000003 569.4399999999999 423.99 570.59 423.43C571.19 423.14 572.65 423 574.12 423ZM542 423.23L553.34 423.23L553.34 426.36L549.5600000000001 426.36L549.5600000000001 435.78000000000003L545.7800000000001 435.78000000000003L545.7800000000001 426.36L542.0000000000001 426.36ZM582.02 423.23L585.59 423.23L585.59 427.81L589.74 427.81L589.74 423.23L593.3100000000001 423.23L593.3100000000001 435.77000000000004L589.74 435.77000000000004L589.74 430.93000000000006L585.59 430.93000000000006L585.59 435.77000000000004L582.02 435.77000000000004ZM603.21 423.23L609.6600000000001 423.23C612.1500000000001 423.23 613.9000000000001 423.75 613.9000000000001 426.51C613.9000000000001 427.87 613.4300000000001 428.81 611.8400000000001 429.21999999999997C613.8100000000002 429.71 614.1400000000001 430.96999999999997 614.1400000000001 432.39C614.1400000000001 434.44 613.0900000000001 435.77 609.9800000000001 435.77L603.2100000000002 435.77ZM596.45 423.23L600.0300000000001 423.23L600.0300000000001 435.77000000000004L596.45 435.77000000000004ZM560.54 425.94C559.04 425.94 558.27 426.16 558.18 428.1C558.16 428.40000000000003 558.14 428.81 558.14 429.5C558.14 430.19 558.16 430.6 558.18 430.9C558.27 432.83 559.04 433.06 560.54 433.06C562.04 433.06 562.81 432.83 562.91 430.9C562.92 430.59999999999997 562.9399999999999 430.19 562.9399999999999 429.5C562.9399999999999 428.81 562.92 428.4 562.91 428.1C562.81 426.16 562.04 425.94 560.54 425.94ZM621.52 426.33L620.25 430.65999999999997L622.8 430.65999999999997L621.54 426.33ZM606.78 426.1L606.78 428.14000000000004L609.26 428.14000000000004C609.91 428.14000000000004 610.3 427.76000000000005 610.3 427.13000000000005C610.3 426.40000000000003 609.9 426.1000000000001 609.26 426.1000000000001ZM606.78 430.62L606.78 432.9L609.26 432.9C610.08 432.9 610.47 432.46999999999997 610.47 431.76C610.47 431.05 610.26 430.62 609.26 430.62Z " fill="#d8d8d8" fill-opacity="1" transform="matrix(1,0,0,1,-542,-423)"></path></svg>