<svg id="SvgjsSvg1086" xmlns="http://www.w3.org/2000/svg" version="1.1" xmlns:xlink="http://www.w3.org/1999/xlink" xmlns:svgjs="http://svgjs.com/svgjs" width="94" height="14"><defs id="SvgjsDefs1087"></defs><path id="SvgjsPath1088" d="M730.69 428.32C730.3900000000001 427.94 729.95 427.75 729.2900000000001 427.75C727.8100000000001 427.75 726.9900000000001 428.63 726.34 430.85C725.9100000000001 432.31 725.9100000000001 433.15000000000003 726.3100000000001 433.70000000000005C726.59 434.06000000000006 727.0500000000001 434.25000000000006 727.71 434.25000000000006C729.1700000000001 434.25000000000006 730.01 433.38000000000005 730.6700000000001 431.15000000000003C731.09 429.71000000000004 731.09 428.87000000000006 730.69 428.32000000000005ZM736.81 430.85C735.8499999999999 434.12 732.2299999999999 436 726.8699999999999 436C723.6699999999998 436 721.4999999999999 435.35 720.5299999999999 434.08C719.9499999999998 433.32 719.8599999999999 432.33 720.1899999999998 431.15C721.1499999999999 427.88 724.7699999999999 426 730.1299999999999 426C733.3099999999998 426 735.5099999999999 426.67 736.4499999999999 427.94C737.03 428.7 737.15 429.67 736.81 430.85Z " fill="#d8d8d8" fill-opacity="1" transform="matrix(1,0,0,1,-643,-423)"></path><path id="SvgjsPath1089" d="M717.13 426C717.32 426 722.42 426 723 426C722.65 426.46 716.27 434.86 716.16 435C715.98 435 707.4499999999999 435 707.16 435C707.11 434.74 706.04 426.32 706 426C706.35 426 711.25 426 711.52 426C711.56 426.26 712.3199999999999 432.31 712.3199999999999 432.31C712.3199999999999 432.31 717.05 426.12 717.1299999999999 426 " fill="#d8d8d8" fill-opacity="1" transform="matrix(1,0,0,1,-643,-423)"></path><path id="SvgjsPath1090" d="M698.68 428.32C698.4 427.94 697.9399999999999 427.75 697.3 427.75C695.8199999999999 427.75 694.9799999999999 428.63 694.3499999999999 430.85C693.8999999999999 432.31 693.8999999999999 433.15000000000003 694.3199999999999 433.70000000000005C694.5999999999999 434.06000000000006 695.06 434.25000000000006 695.6999999999999 434.25000000000006C697.18 434.25000000000006 698.02 433.38000000000005 698.66 431.15000000000003C699.0799999999999 429.71000000000004 699.1 428.87000000000006 698.68 428.32000000000005ZM704.8 430.85C703.8399999999999 434.12 700.2199999999999 436 694.88 436C691.6899999999999 436 689.51 435.35 688.55 434.08C687.9699999999999 433.32 687.8499999999999 432.33 688.1899999999999 431.15C689.17 427.88 692.78 426 698.1199999999999 426C701.3199999999999 426 703.4999999999999 426.67 704.4499999999999 427.94C705.04 428.7 705.16 429.67 704.8 430.85Z " fill="#d8d8d8" fill-opacity="1" transform="matrix(1,0,0,1,-643,-423)"></path><path id="SvgjsPath1091" d="M687.7 427.5C687.9200000000001 427.8 688.0500000000001 428.11 687.98 428.54L685.7 436L679.6600000000001 436L681.8000000000001 429.04C681.8800000000001 428.74 681.7800000000001 428.48 681.61 428.28000000000003C681.32 427.91 680.71 427.67 678.59 427.83000000000004C678.59 427.83000000000004 676.08 435.89000000000004 676.0400000000001 436.00000000000006L670.0000000000001 436.00000000000006C670.0600000000001 435.83000000000004 672.8400000000001 426.8500000000001 672.8800000000001 426.76000000000005C674.9700000000001 426.37000000000006 677.7500000000001 426.00000000000006 680.6300000000001 426.00000000000006C684.5300000000001 426.00000000000006 686.9100000000001 426.50000000000006 687.7000000000002 427.50000000000006 " fill="#d8d8d8" fill-opacity="1" transform="matrix(1,0,0,1,-643,-423)"></path><path id="SvgjsPath1092" d="M664.48 428.17C664.24 427.88 663.73 427.5 662.6700000000001 427.5C661.1600000000001 427.5 660.0300000000001 428.21 659.6500000000001 429.42L658.9100000000001 432.18L664.7500000000001 429.46C664.8800000000001 428.87 664.6900000000002 428.43 664.4800000000001 428.16999999999996ZM669.81 430.43C669.6199999999999 430.47 658.7199999999999 432.88 658.7199999999999 432.88C658.7199999999999 432.88 658.6099999999999 433.4 659.0099999999999 433.68C659.5499999999998 434.06 660.1199999999999 434.16 661.0999999999999 434.2C663.4999999999999 434.31 666.7499999999999 432.92 667.6599999999999 432.52C667.5199999999999 432.97999999999996 666.5799999999998 435.01 666.5399999999998 435.10999999999996C666.1299999999999 435.25999999999993 663.8799999999999 435.97999999999996 659.4599999999998 435.99999999999994C657.7799999999999 436.0199999999999 654.7899999999998 435.80999999999995 653.5499999999998 434.2699999999999C652.9399999999998 433.50999999999993 652.8299999999998 432.42999999999995 653.2499999999999 431.0799999999999C654.2599999999999 427.8599999999999 657.9999999999999 425.99999999999994 663.4699999999999 425.99999999999994C666.54 425.99999999999994 668.5299999999999 426.56999999999994 669.4499999999999 427.68999999999994C669.81 428.1499999999999 669.9999999999999 428.73999999999995 669.9999999999999 429.43999999999994C669.9999999999999 429.87999999999994 669.8999999999999 430.25999999999993 669.8099999999998 430.42999999999995Z " fill="#d8d8d8" fill-opacity="1" transform="matrix(1,0,0,1,-643,-423)"></path><path id="SvgjsPath1093" d="M647.55 423C647.81 423 653.55 423 654 423C653.87 423.37 649.52 435.78 649.45 436C649.1800000000001 436 643.44 436 643 436C643.13 435.63 647.48 423.21 647.55 423 " fill="#d8d8d8" fill-opacity="1" transform="matrix(1,0,0,1,-643,-423)"></path></svg>