<svg id="SvgjsSvg1000" xmlns="http://www.w3.org/2000/svg" version="1.1" xmlns:xlink="http://www.w3.org/1999/xlink" xmlns:svgjs="http://svgjs.com/svgjs" width="27" height="24" viewBox="0 0 27 24"><title>icon 1.1</title><desc>Created with Avocode.</desc><defs id="SvgjsDefs1001"></defs><path id="SvgjsPath1007" d="M645.79 642.61C645.8399999999999 642.61 645.88 642.6 645.93 642.58C645.9799999999999 642.57 646.04 642.5600000000001 646.0899999999999 642.5400000000001C646.2599999999999 642.46 646.3799999999999 642.32 646.4499999999999 642.1400000000001C646.5099999999999 641.9600000000002 646.4999999999999 641.7800000000001 646.42 641.6100000000001C646.26 641.2400000000001 646.11 640.8800000000001 645.9799999999999 640.5200000000001C645.8499999999999 640.1600000000001 645.7499999999999 639.8100000000001 645.6599999999999 639.45C645.5699999999998 639.1 645.5099999999999 638.75 645.4599999999998 638.4000000000001C645.4199999999998 638.0500000000001 645.3899999999998 637.7 645.3899999999998 637.3600000000001C645.3899999999998 636.5400000000001 645.5499999999997 635.7600000000001 645.8699999999998 635.0400000000001C646.1799999999997 634.3100000000001 646.6099999999998 633.6800000000001 647.1399999999998 633.1400000000001C647.6799999999997 632.6100000000001 648.3099999999997 632.1800000000001 649.0399999999997 631.8700000000001C649.7599999999998 631.5600000000002 650.5399999999997 631.4100000000001 651.3599999999998 631.4100000000001C651.9499999999998 631.4100000000001 652.5299999999997 631.5200000000001 653.0999999999998 631.7400000000001C653.6699999999998 631.9600000000002 654.1899999999998 632.2400000000001 654.6599999999997 632.6000000000001C655.1399999999998 632.9500000000002 655.5499999999997 633.3500000000001 655.8899999999998 633.8000000000002C656.2399999999998 634.2500000000002 656.4899999999998 634.6900000000002 656.6299999999998 635.1300000000002C656.6799999999997 635.2600000000002 656.7599999999998 635.3800000000002 656.8899999999998 635.4700000000003C657.0099999999998 635.5600000000003 657.1499999999997 635.6100000000002 657.2999999999997 635.6100000000002C657.4499999999997 635.6100000000002 657.5799999999997 635.5600000000003 657.7099999999997 635.4700000000003C657.8299999999997 635.3800000000002 657.9099999999997 635.2600000000002 657.9599999999997 635.1300000000002C658.0999999999997 634.6900000000002 658.3499999999997 634.2500000000002 658.6999999999997 633.8000000000002C659.0399999999997 633.3500000000001 659.4599999999997 632.9500000000002 659.9299999999997 632.6000000000001C660.4099999999997 632.2400000000001 660.9399999999997 631.9600000000002 661.5099999999998 631.7400000000001C662.0799999999998 631.5200000000001 662.6599999999997 631.4100000000001 663.2499999999998 631.4100000000001C664.0699999999998 631.4100000000001 664.8399999999998 631.5600000000001 665.5599999999997 631.8700000000001C666.2799999999997 632.1800000000001 666.9099999999997 632.6100000000001 667.4499999999997 633.1400000000001C667.9999999999997 633.6800000000001 668.4199999999997 634.3100000000001 668.7299999999997 635.0400000000001C669.0399999999996 635.7600000000001 669.1999999999997 636.5400000000001 669.1999999999997 637.3600000000001C669.1999999999997 637.7000000000002 669.1799999999997 638.0500000000002 669.1399999999998 638.4000000000001C669.0899999999998 638.7500000000001 669.0299999999997 639.1000000000001 668.9399999999997 639.45C668.8599999999997 639.8100000000001 668.7499999999997 640.1600000000001 668.6199999999997 640.5200000000001C668.4999999999997 640.8800000000001 668.3499999999997 641.2400000000001 668.1699999999996 641.6100000000001C668.0899999999996 641.7800000000001 668.0799999999996 641.9600000000002 668.1499999999996 642.1400000000001C668.2199999999997 642.32 668.3399999999997 642.4600000000002 668.5099999999996 642.5400000000001C668.6899999999996 642.6200000000001 668.8599999999997 642.6300000000001 669.0499999999996 642.5600000000001C669.2299999999996 642.5000000000001 669.3599999999996 642.3800000000001 669.4399999999996 642.2C669.6299999999997 641.7900000000001 669.7999999999996 641.3900000000001 669.9499999999996 640.98C670.0999999999996 640.57 670.2199999999996 640.16 670.3099999999996 639.75C670.4099999999996 639.35 670.4799999999996 638.95 670.5299999999996 638.54C670.5799999999996 638.14 670.6099999999997 637.75 670.6099999999997 637.36C670.6099999999997 636.34 670.4099999999996 635.39 670.0199999999996 634.5C669.6399999999996 633.6 669.1099999999997 632.83 668.4499999999996 632.16C667.7799999999996 631.49 666.9999999999995 630.9699999999999 666.1099999999996 630.5799999999999C665.2099999999996 630.1899999999999 664.2599999999995 629.9999999999999 663.2499999999995 629.9999999999999C662.8999999999995 629.9999999999999 662.5599999999995 630.0299999999999 662.1999999999996 630.0999999999999C661.8499999999996 630.1599999999999 661.4999999999995 630.2499999999999 661.1599999999996 630.3799999999999C660.8099999999996 630.4999999999999 660.4699999999996 630.6499999999999 660.1299999999997 630.8299999999999C659.7999999999996 630.9999999999999 659.4699999999997 631.2099999999999 659.1499999999996 631.4499999999999C658.7699999999996 631.7199999999999 658.4299999999996 632.02 658.1199999999997 632.3399999999999C657.7999999999996 632.67 657.5299999999996 632.9999999999999 657.2999999999996 633.3499999999999C657.0699999999996 632.9999999999999 656.7899999999996 632.67 656.4799999999996 632.3399999999999C656.1699999999996 632.0199999999999 655.8299999999996 631.7199999999999 655.4599999999996 631.4499999999999C655.1399999999995 631.2099999999999 654.8099999999996 630.9999999999999 654.4699999999996 630.8299999999999C654.1199999999995 630.65 653.7799999999995 630.4999999999999 653.4299999999996 630.3799999999999C653.0899999999996 630.2499999999999 652.7399999999996 630.1599999999999 652.3899999999996 630.0999999999999C652.0399999999996 630.0299999999999 651.6899999999996 629.9999999999999 651.3599999999997 629.9999999999999C650.3299999999997 629.9999999999999 649.3799999999997 630.1899999999999 648.4899999999997 630.5799999999999C647.5999999999997 630.9699999999999 646.8299999999997 631.4899999999999 646.1599999999996 632.16C645.4899999999997 632.8299999999999 644.9699999999996 633.6 644.5799999999996 634.5C644.1899999999996 635.39 643.9999999999995 636.34 643.9999999999995 637.36C643.9999999999995 637.75 644.0299999999995 638.14 644.0799999999996 638.54C644.1299999999995 638.9499999999999 644.1999999999996 639.3499999999999 644.2899999999996 639.75C644.3899999999996 640.16 644.5099999999996 640.57 644.6599999999996 640.98C644.7999999999996 641.39 644.9699999999996 641.79 645.1599999999996 642.2C645.2199999999996 642.32 645.2999999999996 642.4200000000001 645.4199999999996 642.5C645.5399999999996 642.57 645.6599999999996 642.61 645.7899999999996 642.61ZM657.3 653.8C657.3599999999999 653.8 657.41 653.8 657.4699999999999 653.78C657.5299999999999 653.77 657.5899999999999 653.75 657.6399999999999 653.72C657.6799999999998 653.69 657.9299999999998 653.5400000000001 658.3899999999999 653.27C658.8499999999999 653 659.4399999999998 652.61 660.1499999999999 652.12C660.8599999999999 651.63 661.6499999999999 651.03 662.5299999999999 650.34C663.4099999999999 649.64 664.2799999999999 648.86 665.1499999999999 648.01C665.2999999999998 647.87 665.3699999999999 647.7 665.3699999999999 647.51C665.3699999999999 647.31 665.2999999999998 647.14 665.1599999999999 647.01C665.0299999999999 646.87 664.8599999999999 646.8 664.6699999999998 646.8C664.4699999999998 646.8 664.2999999999998 646.87 664.1699999999998 647.01C663.4799999999998 647.6899999999999 662.7899999999998 648.3199999999999 662.0699999999998 648.9C661.3599999999998 649.48 660.6999999999998 650 660.0799999999998 650.4499999999999C659.4599999999998 650.9 658.8999999999999 651.28 658.4199999999998 651.5899999999999C657.9299999999998 651.91 657.5599999999998 652.1399999999999 657.2999999999998 652.3C657.0499999999998 652.14 656.6799999999998 651.91 656.1899999999998 651.5999999999999C655.6999999999998 651.29 655.1399999999999 650.9099999999999 654.5199999999999 650.4599999999999C653.8999999999999 650.0099999999999 653.2299999999999 649.4899999999999 652.5199999999999 648.91C651.8199999999998 648.3199999999999 651.1199999999999 647.6899999999999 650.4299999999998 647.01C650.2899999999998 646.87 650.1299999999999 646.8 649.9299999999998 646.8C649.7399999999998 646.8 649.5799999999998 646.87 649.4399999999998 647.01C649.2999999999998 647.14 649.2399999999998 647.31 649.2399999999998 647.51C649.2399999999998 647.7 649.2999999999997 647.87 649.4399999999998 648.01C650.3199999999998 648.86 651.1899999999998 649.64 652.0699999999998 650.34C652.9399999999998 651.0300000000001 653.7299999999998 651.63 654.4499999999998 652.12C655.1599999999999 652.61 655.7399999999998 653 656.1999999999998 653.27C656.6599999999999 653.54 656.9199999999998 653.6899999999999 656.9599999999998 653.72C657.0199999999998 653.75 657.0699999999998 653.77 657.1299999999998 653.78C657.1799999999997 653.8 657.2399999999998 653.8 657.2999999999997 653.8ZM658.71 648.2C658.71 648.2 658.71 648.2 658.7 648.2C658.5600000000001 648.2 658.38 648.13 658.1600000000001 648.01C657.95 647.88 657.7700000000001 647.59 657.6400000000001 647.13L655.95 641.06L654.8100000000001 645.65C654.71 646.1 654.5400000000001 646.39 654.33 646.54C654.11 646.68 653.9300000000001 646.76 653.7900000000001 646.78C653.6400000000001 646.79 653.45 646.76 653.21 646.67C652.98 646.5699999999999 652.75 646.3199999999999 652.5400000000001 645.91L651.7 644.2099999999999C651.6800000000001 644.17 651.6600000000001 644.1399999999999 651.6400000000001 644.1099999999999C651.6200000000001 644.0799999999999 651.6100000000001 644.06 651.5900000000001 644.0399999999998C651.5900000000001 644.0499999999998 651.5900000000001 644.0599999999998 651.5900000000001 644.0599999999998C651.5900000000001 644.0699999999998 651.5800000000002 644.0699999999998 651.5700000000002 644.0699999999998C651.3200000000002 644.4499999999998 650.9400000000002 644.7699999999999 650.4300000000002 645.0299999999999C649.9200000000002 645.2799999999999 649.4000000000002 645.4099999999999 648.8900000000002 645.4099999999999L647.5000000000002 645.4099999999999C647.3100000000002 645.4099999999999 647.1400000000002 645.3399999999998 647.0100000000002 645.1999999999998C646.8700000000002 645.0699999999998 646.8000000000002 644.8999999999999 646.8000000000002 644.6999999999998C646.8000000000002 644.5099999999998 646.8700000000002 644.3399999999998 647.0100000000002 644.2099999999998C647.1400000000002 644.0699999999998 647.3100000000002 643.9999999999998 647.5000000000002 643.9999999999998L648.8900000000002 643.9999999999998C649.2000000000002 643.9999999999998 649.5000000000002 643.9199999999997 649.8000000000002 643.7699999999998C650.1000000000001 643.6099999999998 650.3100000000002 643.4499999999997 650.4300000000002 643.2799999999997C650.5800000000002 643.0499999999997 650.7700000000002 642.8799999999998 650.9900000000001 642.7599999999998C651.2100000000002 642.6499999999997 651.4300000000002 642.5999999999998 651.6700000000001 642.6099999999998C651.9300000000001 642.6199999999998 652.1800000000001 642.7199999999998 652.4000000000001 642.8899999999998C652.6200000000001 643.0699999999997 652.8100000000001 643.2999999999997 652.96 643.5899999999998L653.57 644.8299999999998L654.88 639.4999999999998C654.99 639.0599999999997 655.15 638.7599999999998 655.35 638.6199999999998C655.5500000000001 638.4799999999998 655.74 638.4099999999997 655.91 638.4099999999997C656.0699999999999 638.4099999999997 656.26 638.4699999999997 656.4599999999999 638.6099999999998C656.67 638.7399999999998 656.8299999999999 639.0299999999997 656.9499999999999 639.4699999999998L658.7499999999999 645.8899999999998L660.4099999999999 640.8299999999998C660.5399999999998 640.3899999999998 660.7199999999998 640.1099999999998 660.9499999999998 639.9799999999998C661.1699999999998 639.8499999999998 661.3499999999998 639.7899999999997 661.4999999999998 639.7899999999997C661.6499999999997 639.7799999999997 661.8299999999998 639.8299999999997 662.0699999999998 639.9299999999997C662.2999999999998 640.0399999999997 662.5099999999999 640.2999999999997 662.6899999999998 640.7299999999997L663.6999999999998 643.1399999999996C663.7899999999998 643.3699999999997 663.9699999999998 643.5699999999996 664.2299999999998 643.7399999999997C664.4999999999998 643.9099999999996 664.7499999999998 643.9999999999997 664.9999999999998 643.9999999999997L667.1099999999998 643.9999999999997C667.2999999999998 643.9999999999997 667.4599999999998 644.0699999999997 667.5999999999998 644.2099999999997C667.7299999999998 644.3399999999997 667.7999999999998 644.5099999999996 667.7999999999998 644.6999999999997C667.7999999999998 644.8999999999997 667.7299999999998 645.0699999999997 667.5999999999998 645.1999999999997C667.4599999999998 645.3399999999997 667.2999999999998 645.4099999999997 667.1099999999998 645.4099999999997L664.9999999999998 645.4099999999997C664.4799999999998 645.4099999999997 663.9699999999998 645.2399999999998 663.4699999999998 644.9099999999997C662.9699999999998 644.5799999999997 662.6199999999998 644.1699999999997 662.4199999999998 643.6899999999997L661.5799999999998 641.7199999999997L659.7999999999998 647.1699999999997C659.6599999999999 647.6199999999998 659.4799999999998 647.8999999999997 659.2599999999999 648.0199999999998C659.0399999999998 648.1399999999998 658.8599999999999 648.1999999999997 658.7199999999999 648.1999999999997Z " fill="#909090" fill-opacity="1" transform="matrix(1,0,0,1,-644,-630)"></path></svg>