<svg id="SvgjsSvg1009" xmlns="http://www.w3.org/2000/svg" version="1.1" xmlns:xlink="http://www.w3.org/1999/xlink" xmlns:svgjs="http://svgjs.com/svgjs" width="51" height="32"><defs id="SvgjsDefs1010"></defs><path id="SvgjsPath1011" d="M1206.5 3587.01C1206.36 3587.01 1206.24 3586.96 1206.15 3586.86C1206.0500000000002 3586.76 1206 3586.6400000000003 1206 3586.51C1206 3586.36 1206.05 3586.2400000000002 1206.15 3586.15C1206.24 3586.05 1206.3600000000001 3586 1206.5 3586L1221.5 3586C1221.63 3586 1221.75 3586.05 1221.85 3586.15C1221.9499999999998 3586.2400000000002 1222 3586.36 1222 3586.51C1222 3586.6400000000003 1221.95 3586.76 1221.85 3586.86C1221.75 3586.96 1221.6299999999999 3587.01 1221.5 3587.01ZM1206.5 3592.01C1206.36 3592.01 1206.24 3591.96 1206.15 3591.86C1206.0500000000002 3591.76 1206 3591.6400000000003 1206 3591.51C1206 3591.36 1206.05 3591.2400000000002 1206.15 3591.15C1206.24 3591.05 1206.3600000000001 3591 1206.5 3591L1221.5 3591C1221.63 3591 1221.75 3591.05 1221.85 3591.15C1221.9499999999998 3591.2400000000002 1222 3591.36 1222 3591.51C1222 3591.6400000000003 1221.95 3591.76 1221.85 3591.86C1221.75 3591.96 1221.6299999999999 3592.01 1221.5 3592.01ZM1221.5 3597.01C1221.63 3597.01 1221.75 3596.96 1221.85 3596.86C1221.9499999999998 3596.76 1222 3596.6400000000003 1222 3596.51C1222 3596.36 1221.95 3596.2400000000002 1221.85 3596.15C1221.75 3596.05 1221.6299999999999 3596 1221.5 3596L1206.5 3596C1206.36 3596 1206.24 3596.05 1206.15 3596.15C1206.0500000000002 3596.2400000000002 1206 3596.36 1206 3596.51C1206 3596.6400000000003 1206.05 3596.76 1206.15 3596.86C1206.24 3596.96 1206.3600000000001 3597.01 1206.5 3597.01Z " fill="#909090" fill-opacity="1" transform="matrix(1,0,0,1,-1171,-3586)"></path><path id="SvgjsPath1012" d="M1194.11 3612.39C1194.6799999999998 3612.39 1195.1699999999998 3612.19 1195.58 3611.7799999999997C1195.99 3611.37 1196.1999999999998 3610.87 1196.1999999999998 3610.29L1196.1999999999998 3599.09C1196.1999999999998 3598.52 1195.9899999999998 3598.03 1195.58 3597.6200000000003C1195.1699999999998 3597.2100000000005 1194.6799999999998 3597.0000000000005 1194.11 3597.0000000000005L1175.8899999999999 3597.0000000000005C1175.32 3597.0000000000005 1174.83 3597.2100000000005 1174.4199999999998 3597.6200000000003C1174.0099999999998 3598.03 1173.8 3598.5200000000004 1173.8 3599.09L1173.8 3610.29C1173.8 3610.87 1174.01 3611.37 1174.4199999999998 3611.7799999999997C1174.83 3612.1899999999996 1175.32 3612.39 1175.8899999999999 3612.39ZM1175.2 3599.09C1175.2 3598.9 1175.27 3598.7400000000002 1175.4 3598.6000000000004C1175.5400000000002 3598.4600000000005 1175.7 3598.3900000000003 1175.89 3598.3900000000003L1194.1100000000001 3598.3900000000003C1194.3000000000002 3598.3900000000003 1194.46 3598.4600000000005 1194.6000000000001 3598.6000000000004C1194.7300000000002 3598.7400000000002 1194.8000000000002 3598.9000000000005 1194.8000000000002 3599.09L1194.8000000000002 3610.29C1194.8000000000002 3610.49 1194.7300000000002 3610.66 1194.6000000000001 3610.79C1194.46 3610.93 1194.3000000000002 3611 1194.1100000000001 3611L1175.89 3611C1175.7 3611 1175.5400000000002 3610.93 1175.4 3610.79C1175.27 3610.66 1175.2 3610.49 1175.2 3610.29ZM1171.7 3613.79C1171.51 3613.79 1171.3400000000001 3613.86 1171.21 3613.99C1171.07 3614.1299999999997 1171 3614.2999999999997 1171 3614.5L1171 3615.89C1171 3616.48 1171.21 3616.97 1171.62 3617.3799999999997C1172.03 3617.7899999999995 1172.52 3617.9999999999995 1173.11 3617.9999999999995L1196.8899999999999 3617.9999999999995C1197.4799999999998 3617.9999999999995 1197.9699999999998 3617.7899999999995 1198.3799999999999 3617.3799999999997C1198.79 3616.97 1198.9999999999998 3616.4799999999996 1198.9999999999998 3615.89L1198.9999999999998 3614.5C1198.9999999999998 3614.3 1198.9299999999998 3614.13 1198.7899999999997 3613.99C1198.6599999999996 3613.8599999999997 1198.4899999999998 3613.79 1198.2999999999997 3613.79ZM1173.11 3616.59C1172.8999999999999 3616.59 1172.74 3616.52 1172.6 3616.3900000000003C1172.4599999999998 3616.2500000000005 1172.3899999999999 3616.09 1172.3899999999999 3615.8900000000003L1172.3899999999999 3615.2000000000003L1197.61 3615.2000000000003L1197.61 3615.8900000000003C1197.61 3616.09 1197.54 3616.2500000000005 1197.3999999999999 3616.3900000000003C1197.2599999999998 3616.5200000000004 1197.1 3616.59 1196.8899999999999 3616.59Z " fill="#909090" fill-opacity="1" transform="matrix(1,0,0,1,-1171,-3586)"></path></svg>