<svg id="SvgjsSvg1094" xmlns="http://www.w3.org/2000/svg" version="1.1" xmlns:xlink="http://www.w3.org/1999/xlink" xmlns:svgjs="http://svgjs.com/svgjs" width="36" height="27"><defs id="SvgjsDefs1095"></defs><path id="SvgjsPath1096" d="M975.78 630.87C975.67 630.68 975.49 630.54 975.28 630.49L975.28 630.48L962.24 627.03C962.1 626.99 961.96 626.99 961.83 627.03L948.72 630.48C948.72 630.48 948.72 630.48 948.72 630.49C948.51 630.54 948.33 630.6800000000001 948.22 630.87L945.09 636.66C944.99 636.85 944.97 637.0799999999999 945.0400000000001 637.28C945.1100000000001 637.48 945.2600000000001 637.65 945.46 637.74L948.1800000000001 639L948.1800000000001 646.92C948.1800000000001 647.2199999999999 948.35 647.49 948.6300000000001 647.62L961.69 653.8100000000001C961.8000000000001 653.86 961.9100000000001 653.8900000000001 962.0300000000001 653.8900000000001C962.1500000000001 653.8900000000001 962.2700000000001 653.8600000000001 962.3700000000001 653.8100000000001C962.3800000000001 653.8100000000001 962.3800000000001 653.8100000000001 962.3800000000001 653.8100000000001L975.44 647.62C975.71 647.49 975.8900000000001 647.22 975.8900000000001 646.92L975.8900000000001 639C975.8900000000001 638.99 975.8800000000001 638.98 975.8800000000001 638.97L978.5400000000001 637.74C978.7400000000001 637.65 978.8900000000001 637.48 978.96 637.28C979.0300000000001 637.0799999999999 979.01 636.85 978.9100000000001 636.66ZM949.77 639.74L958.42 643.76C958.53 643.81 958.64 643.83 958.76 643.83C958.85 643.83 958.95 643.82 959.04 643.7800000000001C959.24 643.71 959.4 643.5600000000001 959.49 643.3700000000001L961.24 639.5700000000002L961.24 651.8600000000001L949.77 646.4200000000001ZM962.83 651.86L962.83 639.71L964.51 643.37C964.6 643.5600000000001 964.76 643.71 964.96 643.78C965.0500000000001 643.8199999999999 965.1500000000001 643.8299999999999 965.24 643.8299999999999C965.36 643.8299999999999 965.47 643.81 965.58 643.7599999999999L974.2900000000001 639.7099999999999L974.2900000000001 646.42ZM960.93 636.44L958.37 642L946.89 636.67L949.3 632.2099999999999ZM972.46 631.36L962 635.16L951.55 631.36L962.03 628.59ZM963.07 636.44L974.7 632.21L977.11 636.6700000000001L965.63 642.0000000000001Z " fill="#909090" fill-opacity="1" transform="matrix(1,0,0,1,-944,-627)"></path></svg>