<svg id="SvgjsSvg1054" xmlns="http://www.w3.org/2000/svg" version="1.1" xmlns:xlink="http://www.w3.org/1999/xlink" xmlns:svgjs="http://svgjs.com/svgjs" width="32" height="19"><defs id="SvgjsDefs1055"></defs><path id="SvgjsPath1056" d="M677.29 9291.29L665.9399999999999 9291.29L665.9399999999999 9289.480000000001L675.42 9289.480000000001C675.2199999999999 9286.410000000002 673.9699999999999 9283.630000000001 672.03 9281.45L670.55 9282.91L669.25 9281.63L670.72 9280.179999999998C668.51 9278.279999999999 665.6800000000001 9277.059999999998 662.57 9276.849999999999L662.57 9282.239999999998L660.73 9282.239999999998L660.73 9276.849999999999C657.61 9277.059999999998 654.78 9278.279999999999 652.57 9280.179999999998L654.0400000000001 9281.619999999999L652.7400000000001 9282.9L651.2600000000001 9281.449999999999C649.32 9283.63 648.0800000000002 9286.409999999998 647.8700000000001 9289.48L657.3900000000001 9289.48L657.3900000000001 9291.289999999999L646.0000000000001 9291.289999999999L646.0000000000001 9290.38C646.0000000000001 9281.9 653.0200000000001 9275 661.6500000000001 9275C670.2800000000001 9275 677.2900000000001 9281.9 677.2900000000001 9290.38ZM661.65 9294C659.62 9294 657.97 9292.38 657.97 9290.38C657.97 9289.22 658.5400000000001 9288.189999999999 659.4100000000001 9287.529999999999L655.58 9280.96L657.1700000000001 9280.06L661.1100000000001 9286.81C661.2900000000001 9286.789999999999 661.4600000000002 9286.76 661.6500000000001 9286.76C663.6800000000001 9286.76 665.33 9288.39 665.33 9290.380000000001C665.33 9292.380000000001 663.6800000000001 9294.000000000002 661.6500000000001 9294.000000000002ZM661.65 9288.57C660.63 9288.57 659.81 9289.38 659.81 9290.38C659.81 9291.38 660.63 9292.189999999999 661.65 9292.189999999999C662.66 9292.189999999999 663.49 9291.38 663.49 9290.38C663.49 9289.38 662.66 9288.57 661.65 9288.57Z " fill="#909090" fill-opacity="1" transform="matrix(1,0,0,1,-646,-9275)"></path></svg>