<svg id="SvgjsSvg1079" xmlns="http://www.w3.org/2000/svg" version="1.1" xmlns:xlink="http://www.w3.org/1999/xlink" xmlns:svgjs="http://svgjs.com/svgjs" width="19" height="19"><defs id="SvgjsDefs1080"></defs><path id="SvgjsPath1081" d="M223 11863.5C223 11858.25329 227.25329 11854 232.5 11854C237.74671 11854 242 11858.25329 242 11863.5C242 11868.74671 237.74671 11873 232.5 11873C227.25329 11873 223 11868.74671 223 11863.5Z " fill="#9e8e84" fill-opacity="1" transform="matrix(1,0,0,1,-223,-11854)"></path><path id="SvgjsPath1082" d="M236.72 11867.17L236.08 11867.81C235.97 11867.93 235.63000000000002 11868 235.62 11868C233.6 11868.02 231.65 11867.22 230.21 11865.79C228.78 11864.35 227.98000000000002 11862.390000000001 228 11860.36C228 11860.36 228.07 11860.03 228.19 11859.92L228.82999999999998 11859.28C229.05999999999997 11859.04 229.51 11858.94 229.82999999999998 11859.04L229.95999999999998 11859.09C230.27999999999997 11859.19 230.60999999999999 11859.54 230.68999999999997 11859.86L231.01999999999998 11861.04C231.1 11861.36 230.98999999999998 11861.820000000002 230.74999999999997 11862.050000000001L230.31999999999996 11862.480000000001C230.73999999999995 11864.04 231.95999999999995 11865.260000000002 233.51999999999995 11865.680000000002L233.94999999999996 11865.250000000002C234.17999999999995 11865.020000000002 234.63999999999996 11864.900000000001 234.95999999999995 11864.980000000001L236.13999999999996 11865.310000000001C236.45999999999995 11865.400000000001 236.80999999999995 11865.720000000001 236.90999999999997 11866.04L236.95999999999998 11866.18C237.05999999999997 11866.49 236.95999999999998 11866.94 236.71999999999997 11867.17Z " fill="#ffffff" fill-opacity="1" transform="matrix(1,0,0,1,-223,-11854)"></path></svg>