<svg id="SvgjsSvg1028" xmlns="http://www.w3.org/2000/svg" version="1.1" xmlns:xlink="http://www.w3.org/1999/xlink" xmlns:svgjs="http://svgjs.com/svgjs" width="48" height="35"><defs id="SvgjsDefs1029"></defs><path id="SvgjsPath1030" d="M765.9 3584.2C765.86 3584.1499999999996 765.81 3584.1099999999997 765.76 3584.0699999999997C765.7 3584.0399999999995 765.65 3584.0199999999995 765.59 3584.0099999999998L759.58 3583.0099999999998C759.5500000000001 3582.9999999999995 759.5300000000001 3582.9999999999995 759.5 3582.9999999999995C759.48 3582.9999999999995 759.45 3582.9999999999995 759.41 3583.0099999999998L753.42 3584.0099999999998C753.3499999999999 3584.02 753.29 3584.04 753.24 3584.0699999999997C753.1800000000001 3584.1099999999997 753.14 3584.1499999999996 753.1 3584.2L750.1 3588.21C750.03 3588.3 749.99 3588.4 750 3588.52C750.01 3588.64 750.05 3588.75 750.13 3588.84L759.13 3598.84C759.18 3598.8900000000003 759.23 3598.9300000000003 759.3 3598.96C759.3599999999999 3598.9900000000002 759.43 3599.01 759.5 3599.01C759.57 3599.01 759.64 3598.9900000000002 759.71 3598.96C759.77 3598.93 759.83 3598.89 759.87 3598.84L768.87 3588.84C768.95 3588.75 769 3588.6400000000003 769 3588.52C769 3588.4 768.97 3588.3 768.9 3588.21ZM762.78 3588L759.5 3597.04L756.21 3588ZM755.18 3588.08L758.16 3596.25L751.4599999999999 3588.82ZM763.82 3588.08L767.5400000000001 3588.8199999999997L760.85 3596.2499999999995ZM756.71 3587L759.5 3584.21L762.3 3587ZM760.96 3584.25L764.6600000000001 3584.87L763.4200000000001 3586.72ZM755.58 3586.72L754.35 3584.87L758.0500000000001 3584.25ZM754.67 3587.16L751.6899999999999 3587.7599999999998L753.4799999999999 3585.3599999999997ZM764.33 3587.16L765.5300000000001 3585.3599999999997L767.32 3587.7599999999998Z " fill="#909090" fill-opacity="1" transform="matrix(1,0,0,1,-721,-3583)"></path><path id="SvgjsPath1031" d="M744.11 3612.39C744.6800000000001 3612.39 745.17 3612.19 745.58 3611.7799999999997C745.99 3611.37 746.2 3610.87 746.2 3610.29L746.2 3599.09C746.2 3598.52 745.99 3598.03 745.58 3597.6200000000003C745.1700000000001 3597.2100000000005 744.6800000000001 3597.0000000000005 744.11 3597.0000000000005L725.89 3597.0000000000005C725.3199999999999 3597.0000000000005 724.83 3597.2100000000005 724.42 3597.6200000000003C724.01 3598.03 723.8 3598.5200000000004 723.8 3599.09L723.8 3610.29C723.8 3610.87 724.01 3611.37 724.42 3611.7799999999997C724.8299999999999 3612.1899999999996 725.3199999999999 3612.39 725.89 3612.39ZM725.2 3599.09C725.2 3598.9 725.2700000000001 3598.7400000000002 725.4000000000001 3598.6000000000004C725.5400000000001 3598.4600000000005 725.7 3598.3900000000003 725.8900000000001 3598.3900000000003L744.1100000000001 3598.3900000000003C744.3000000000002 3598.3900000000003 744.4600000000002 3598.4600000000005 744.6000000000001 3598.6000000000004C744.7300000000001 3598.7400000000002 744.8000000000002 3598.9000000000005 744.8000000000002 3599.09L744.8000000000002 3610.29C744.8000000000002 3610.49 744.7300000000001 3610.66 744.6000000000001 3610.79C744.4600000000002 3610.93 744.3000000000002 3611 744.1100000000001 3611L725.8900000000001 3611C725.7 3611 725.5400000000001 3610.93 725.4000000000001 3610.79C725.2700000000001 3610.66 725.2 3610.49 725.2 3610.29ZM721.7 3613.79C721.51 3613.79 721.34 3613.86 721.21 3613.99C721.07 3614.1299999999997 721 3614.2999999999997 721 3614.5L721 3615.89C721 3616.48 721.21 3616.97 721.62 3617.3799999999997C722.03 3617.7899999999995 722.52 3617.9999999999995 723.11 3617.9999999999995L746.89 3617.9999999999995C747.48 3617.9999999999995 747.97 3617.7899999999995 748.38 3617.3799999999997C748.79 3616.97 749 3616.4799999999996 749 3615.89L749 3614.5C749 3614.3 748.93 3614.13 748.79 3613.99C748.66 3613.8599999999997 748.49 3613.79 748.3 3613.79ZM723.11 3616.59C722.9 3616.59 722.74 3616.52 722.6 3616.3900000000003C722.46 3616.2500000000005 722.39 3616.09 722.39 3615.8900000000003L722.39 3615.2000000000003L747.61 3615.2000000000003L747.61 3615.8900000000003C747.61 3616.09 747.54 3616.2500000000005 747.4 3616.3900000000003C747.26 3616.5200000000004 747.1 3616.59 746.89 3616.59Z " fill="#909090" fill-opacity="1" transform="matrix(1,0,0,1,-721,-3583)"></path></svg>