<svg id="SvgjsSvg1019" xmlns="http://www.w3.org/2000/svg" version="1.1" xmlns:xlink="http://www.w3.org/1999/xlink" xmlns:svgjs="http://svgjs.com/svgjs" width="19" height="19"><defs id="SvgjsDefs1020"></defs><path id="SvgjsPath1021" d="M223 12057.5C223 12052.25329 227.25329 12048 232.5 12048C237.74671 12048 242 12052.25329 242 12057.5C242 12062.74671 237.74671 12067 232.5 12067C227.25329 12067 223 12062.74671 223 12057.5Z " fill="#9e8e84" fill-opacity="1" transform="matrix(1,0,0,1,-223,-12048)"></path><path id="SvgjsPath1022" d="M235.63 12054.08C234.99 12052.55 233.57 12052 232.43 12052C230.91 12052 229.22 12053.01 229 12055.1L229 12055.52C229 12055.54 229.01 12055.7 229.02 12055.78C229.14000000000001 12056.77 229.93 12057.83 230.53 12058.820000000002C231.16 12059.890000000001 231.83 12060.930000000002 232.48 12061.980000000001C232.89 12061.300000000001 233.29 12060.600000000002 233.67999999999998 12059.94C233.79 12059.74 233.92 12059.550000000001 234.01999999999998 12059.36C234.1 12059.24 234.23 12059.11 234.29999999999998 12059C234.92999999999998 12057.85 235.95999999999998 12056.68 235.95999999999998 12055.54L235.95999999999998 12055.070000000002C235.95999999999998 12054.95 235.79999999999998 12054.510000000002 235.79999999999998 12054.480000000001C235.76 12054.350000000002 235.68999999999997 12054.210000000001 235.63 12054.080000000002ZM231.28 12055.79C231.24 12055.69 231.25 12055.5 231.25 12055.480000000001L231.25 12055.2C231.25 12054.42 231.92 12054.070000000002 232.5 12054.070000000002C233.22 12054.070000000002 233.77 12054.630000000001 233.77 12055.340000000002C233.77 12056.050000000001 233.18 12056.620000000003 232.46 12056.620000000003C232.01000000000002 12056.620000000003 231.52 12056.400000000003 231.28 12055.790000000003Z " fill="#ffffff" fill-opacity="1" transform="matrix(1,0,0,1,-223,-12048)"></path></svg>