<svg id="SvgjsSvg1020" xmlns="http://www.w3.org/2000/svg" version="1.1" xmlns:xlink="http://www.w3.org/1999/xlink" xmlns:svgjs="http://svgjs.com/svgjs" width="50" height="34"><defs id="SvgjsDefs1021"></defs><path id="SvgjsPath1022" d="M759.15 3448.85C759.05 3448.7599999999998 759 3448.64 759 3448.5L759 3439.5C759 3439.36 759.05 3439.24 759.15 3439.15C759.25 3439.05 759.36 3439 759.5 3439C759.64 3439 759.75 3439.05 759.85 3439.15C759.95 3439.2400000000002 760 3439.36 760 3439.5L760 3448.5C760 3448.64 759.95 3448.76 759.85 3448.85C759.75 3448.95 759.64 3449 759.5 3449C759.36 3449 759.25 3448.95 759.15 3448.85ZM759.5 3456C760 3456 760.49 3455.95 760.97 3455.86C761.46 3455.77 761.9200000000001 3455.6200000000003 762.37 3455.44C762.82 3455.25 763.25 3455.02 763.66 3454.7400000000002C764.06 3454.4700000000003 764.4399999999999 3454.1600000000003 764.8 3453.8C765.15 3453.4500000000003 765.4699999999999 3453.07 765.74 3452.6600000000003C766.01 3452.2500000000005 766.24 3451.82 766.4300000000001 3451.3700000000003C766.61 3450.9200000000005 766.7600000000001 3450.4600000000005 766.85 3449.9800000000005C766.95 3449.4900000000007 767 3449.0000000000005 767 3448.5000000000005C767 3448.0900000000006 766.97 3447.6900000000005 766.9 3447.2900000000004C766.84 3446.8900000000003 766.74 3446.5000000000005 766.61 3446.1100000000006C766.49 3445.7300000000005 766.33 3445.3600000000006 766.14 3445.0100000000007C765.9499999999999 3444.6500000000005 765.73 3444.310000000001 765.48 3443.9800000000005C765.24 3443.6600000000003 764.98 3443.3700000000003 764.69 3443.0900000000006C764.4000000000001 3442.8200000000006 764.09 3442.5700000000006 763.7700000000001 3442.3400000000006C763.44 3442.1100000000006 763.1000000000001 3441.9100000000008 762.7400000000001 3441.7400000000007C762.3800000000001 3441.5700000000006 762.0200000000001 3441.4300000000007 761.6400000000001 3441.310000000001C761.5100000000001 3441.2800000000007 761.3800000000001 3441.290000000001 761.2600000000001 3441.350000000001C761.1400000000001 3441.420000000001 761.0600000000001 3441.520000000001 761.0200000000001 3441.650000000001C760.9800000000001 3441.780000000001 760.9900000000001 3441.910000000001 761.0600000000001 3442.030000000001C761.1300000000001 3442.150000000001 761.23 3442.230000000001 761.36 3442.270000000001C762.04 3442.4700000000007 762.67 3442.780000000001 763.24 3443.1800000000007C763.8100000000001 3443.5900000000006 764.29 3444.0700000000006 764.71 3444.620000000001C765.12 3445.170000000001 765.4300000000001 3445.7800000000007 765.6600000000001 3446.440000000001C765.8800000000001 3447.100000000001 765.9900000000001 3447.790000000001 765.9900000000001 3448.500000000001C765.9900000000001 3449.400000000001 765.8200000000002 3450.2400000000007 765.4900000000001 3451.030000000001C765.1500000000001 3451.820000000001 764.6800000000002 3452.510000000001 764.0900000000001 3453.1000000000013C763.5100000000001 3453.6900000000014 762.8200000000002 3454.1500000000015 762.0200000000001 3454.490000000001C761.2300000000001 3454.8300000000013 760.3900000000001 3455.010000000001 759.5000000000001 3455.010000000001C758.6000000000001 3455.010000000001 757.7600000000001 3454.8300000000013 756.9700000000001 3454.490000000001C756.1800000000002 3454.150000000001 755.4900000000001 3453.690000000001 754.9100000000002 3453.1000000000013C754.3200000000002 3452.510000000001 753.8500000000003 3451.820000000001 753.5100000000002 3451.030000000001C753.1700000000002 3450.240000000001 753.0000000000002 3449.400000000001 753.0000000000002 3448.500000000001C753.0000000000002 3447.790000000001 753.1100000000002 3447.100000000001 753.3400000000003 3446.440000000001C753.5700000000003 3445.780000000001 753.8800000000002 3445.170000000001 754.2900000000003 3444.620000000001C754.7100000000003 3444.0700000000006 755.1900000000003 3443.5900000000006 755.7600000000003 3443.1800000000007C756.3300000000004 3442.7800000000007 756.9600000000004 3442.4700000000007 757.6400000000003 3442.270000000001C757.7700000000003 3442.230000000001 757.8700000000003 3442.150000000001 757.9400000000003 3442.030000000001C758.0000000000002 3441.910000000001 758.0200000000003 3441.780000000001 757.9800000000002 3441.650000000001C757.9400000000003 3441.520000000001 757.8600000000002 3441.420000000001 757.7400000000002 3441.350000000001C757.6200000000002 3441.290000000001 757.4900000000002 3441.2800000000007 757.3500000000003 3441.310000000001C756.9700000000003 3441.4300000000007 756.6100000000002 3441.570000000001 756.2500000000002 3441.7400000000007C755.8900000000002 3441.9100000000008 755.5500000000002 3442.1100000000006 755.2200000000003 3442.3400000000006C754.9000000000002 3442.5700000000006 754.5900000000003 3442.8200000000006 754.3000000000003 3443.0900000000006C754.0200000000003 3443.370000000001 753.7500000000003 3443.6600000000008 753.5100000000003 3443.9800000000005C753.2700000000003 3444.3100000000004 753.0500000000003 3444.6500000000005 752.8600000000004 3445.0100000000007C752.6700000000003 3445.3600000000006 752.5100000000003 3445.7300000000005 752.3900000000003 3446.1100000000006C752.2600000000003 3446.5000000000005 752.1600000000003 3446.890000000001 752.1000000000004 3447.2900000000004C752.0300000000003 3447.6900000000005 752.0000000000003 3448.0900000000006 752.0000000000003 3448.5000000000005C752.0000000000003 3449.0000000000005 752.0500000000003 3449.4900000000002 752.1400000000003 3449.9800000000005C752.2400000000004 3450.4600000000005 752.3800000000003 3450.9200000000005 752.5600000000003 3451.3700000000003C752.7500000000003 3451.82 752.9800000000002 3452.2500000000005 753.2500000000003 3452.6600000000003C753.5200000000003 3453.07 753.8400000000004 3453.4500000000003 754.2000000000004 3453.8C754.5500000000004 3454.1600000000003 754.9300000000004 3454.4700000000003 755.3400000000004 3454.7400000000002C755.7500000000003 3455.0200000000004 756.1800000000004 3455.2500000000005 756.6300000000003 3455.44C757.0800000000004 3455.62 757.5400000000003 3455.77 758.0300000000003 3455.86C758.5100000000003 3455.9500000000003 759.0000000000003 3456 759.5000000000003 3456Z " fill="#909090" fill-opacity="1" transform="matrix(1,0,0,1,-717,-3439)"></path><path id="SvgjsPath1023" d="M740.11 3467.39C740.6800000000001 3467.39 741.17 3467.19 741.58 3466.7799999999997C741.99 3466.37 742.2 3465.87 742.2 3465.29L742.2 3454.09C742.2 3453.52 741.99 3453.03 741.58 3452.6200000000003C741.1700000000001 3452.2100000000005 740.6800000000001 3452.0000000000005 740.11 3452.0000000000005L721.89 3452.0000000000005C721.3199999999999 3452.0000000000005 720.83 3452.2100000000005 720.42 3452.6200000000003C720.01 3453.03 719.8 3453.5200000000004 719.8 3454.09L719.8 3465.29C719.8 3465.87 720.01 3466.37 720.42 3466.7799999999997C720.8299999999999 3467.1899999999996 721.3199999999999 3467.39 721.89 3467.39ZM721.2 3454.09C721.2 3453.9 721.2700000000001 3453.7400000000002 721.4000000000001 3453.6000000000004C721.5400000000001 3453.4600000000005 721.7 3453.3900000000003 721.8900000000001 3453.3900000000003L740.1100000000001 3453.3900000000003C740.3000000000002 3453.3900000000003 740.4600000000002 3453.4600000000005 740.6000000000001 3453.6000000000004C740.7300000000001 3453.7400000000002 740.8000000000002 3453.9000000000005 740.8000000000002 3454.09L740.8000000000002 3465.29C740.8000000000002 3465.49 740.7300000000001 3465.66 740.6000000000001 3465.79C740.4600000000002 3465.93 740.3000000000002 3466 740.1100000000001 3466L721.8900000000001 3466C721.7 3466 721.5400000000001 3465.93 721.4000000000001 3465.79C721.2700000000001 3465.66 721.2 3465.49 721.2 3465.29ZM717.7 3468.79C717.51 3468.79 717.34 3468.86 717.21 3468.99C717.07 3469.1299999999997 717 3469.2999999999997 717 3469.5L717 3470.89C717 3471.48 717.21 3471.97 717.62 3472.3799999999997C718.03 3472.7899999999995 718.52 3472.9999999999995 719.11 3472.9999999999995L742.89 3472.9999999999995C743.48 3472.9999999999995 743.97 3472.7899999999995 744.38 3472.3799999999997C744.79 3471.97 745 3471.4799999999996 745 3470.89L745 3469.5C745 3469.3 744.93 3469.13 744.79 3468.99C744.66 3468.8599999999997 744.49 3468.79 744.3 3468.79ZM719.11 3471.59C718.9 3471.59 718.74 3471.52 718.6 3471.3900000000003C718.46 3471.2500000000005 718.39 3471.09 718.39 3470.8900000000003L718.39 3470.2000000000003L743.61 3470.2000000000003L743.61 3470.8900000000003C743.61 3471.09 743.54 3471.2500000000005 743.4 3471.3900000000003C743.26 3471.5200000000004 743.1 3471.59 742.89 3471.59Z " fill="#909090" fill-opacity="1" transform="matrix(1,0,0,1,-717,-3439)"></path></svg>