<svg id="SvgjsSvg1057" xmlns="http://www.w3.org/2000/svg" version="1.1" xmlns:xlink="http://www.w3.org/1999/xlink" xmlns:svgjs="http://svgjs.com/svgjs" width="27" height="27"><defs id="SvgjsDefs1058"></defs><path id="SvgjsPath1059" d="M963.56 9298.37C962.79 9298.220000000001 962.05 9297.990000000002 961.3399999999999 9297.7C960.6299999999999 9297.400000000001 959.9499999999999 9297.04 959.3 9296.6C958.66 9296.17 958.05 9295.67 957.49 9295.11C956.92 9294.550000000001 956.42 9293.95 955.99 9293.29C955.5600000000001 9292.640000000001 955.19 9291.960000000001 954.9 9291.25C954.6 9290.54 954.38 9289.8 954.23 9289.04C954.08 9288.27 954 9287.490000000002 954 9286.7C954 9285.900000000001 954.08 9285.130000000001 954.23 9284.36C954.38 9283.59 954.6 9282.86 954.9 9282.140000000001C955.1899999999999 9281.430000000002 955.56 9280.750000000002 955.99 9280.1C956.42 9279.45 956.92 9278.85 957.49 9278.29C958.05 9277.720000000001 958.66 9277.220000000001 959.3 9276.79C959.9499999999999 9276.36 960.63 9275.990000000002 961.3399999999999 9275.7C962.05 9275.400000000001 962.79 9275.18 963.56 9275.03C964.3199999999999 9274.880000000001 965.0999999999999 9274.800000000001 965.89 9274.800000000001C966.1 9274.800000000001 966.26 9274.87 966.4 9275.01C966.54 9275.14 966.61 9275.31 966.61 9275.5L966.61 9286L977.11 9286C977.3000000000001 9286 977.46 9286.07 977.6 9286.21C977.73 9286.339999999998 977.8000000000001 9286.509999999998 977.8000000000001 9286.699999999999C977.8000000000001 9287.49 977.73 9288.269999999999 977.57 9289.039999999999C977.4200000000001 9289.8 977.19 9290.539999999999 976.9000000000001 9291.249999999998C976.6100000000001 9291.959999999997 976.2500000000001 9292.639999999998 975.8100000000001 9293.289999999999C975.3800000000001 9293.949999999999 974.8800000000001 9294.55 974.32 9295.109999999999C973.75 9295.669999999998 973.1500000000001 9296.169999999998 972.5 9296.599999999999C971.85 9297.039999999999 971.17 9297.399999999998 970.45 9297.699999999999C969.74 9297.99 969 9298.22 968.24 9298.369999999999C967.48 9298.519999999999 966.7 9298.589999999998 965.89 9298.589999999998C965.1 9298.589999999998 964.3199999999999 9298.519999999999 963.56 9298.369999999999ZM965.2 9276.22C963.83 9276.32 962.5500000000001 9276.65 961.36 9277.23C960.17 9277.81 959.14 9278.57 958.25 9279.51C957.37 9280.460000000001 956.67 9281.54 956.16 9282.77C955.65 9284 955.39 9285.310000000001 955.39 9286.7C955.39 9288.150000000001 955.67 9289.51 956.22 9290.79C956.77 9292.060000000001 957.53 9293.17 958.48 9294.12C959.4300000000001 9295.070000000002 960.54 9295.820000000002 961.82 9296.37C963.1 9296.92 964.45 9297.2 965.8900000000001 9297.2C967.2900000000001 9297.2 968.6000000000001 9296.94 969.8300000000002 9296.43C971.0600000000002 9295.92 972.1500000000002 9295.23 973.0900000000001 9294.35C974.0200000000001 9293.470000000001 974.7900000000002 9292.43 975.3700000000001 9291.24C975.9500000000002 9290.039999999999 976.2900000000001 9288.76 976.3800000000001 9287.39L965.8900000000001 9287.39C965.7 9287.39 965.5400000000001 9287.33 965.4000000000001 9287.189999999999C965.2700000000001 9287.05 965.2 9286.89 965.2 9286.699999999999ZM968.7 9284.59C968.51 9284.59 968.34 9284.52 968.21 9284.39C968.07 9284.25 968 9284.09 968 9283.89L968 9272.699999999999C968 9272.509999999998 968.07 9272.339999999998 968.21 9272.21C968.34 9272.07 968.51 9272 968.7 9272C969.49 9272 970.2700000000001 9272.08 971.0400000000001 9272.23C971.8000000000001 9272.38 972.5400000000001 9272.6 973.2600000000001 9272.9C973.9700000000001 9273.19 974.6500000000001 9273.56 975.3000000000001 9273.99C975.95 9274.42 976.5500000000001 9274.92 977.1200000000001 9275.49C977.6800000000001 9276.039999999999 978.1700000000001 9276.65 978.6000000000001 9277.3C979.0400000000002 9277.949999999999 979.4000000000001 9278.63 979.7000000000002 9279.34C979.9900000000001 9280.05 980.2200000000001 9280.79 980.3700000000001 9281.56C980.5300000000001 9282.32 980.6100000000001 9283.1 980.6100000000001 9283.89C980.6100000000001 9284.09 980.5400000000001 9284.25 980.4000000000001 9284.39C980.2600000000001 9284.519999999999 980.1000000000001 9284.59 979.8900000000001 9284.59ZM969.39 9283.2L979.18 9283.2C979.0899999999999 9281.880000000001 978.78 9280.650000000001 978.2399999999999 9279.51C977.6999999999999 9278.36 976.9999999999999 9277.35 976.1199999999999 9276.48C975.2499999999999 9275.609999999999 974.2299999999999 9274.9 973.0899999999999 9274.359999999999C971.9399999999999 9273.819999999998 970.7099999999999 9273.499999999998 969.3899999999999 9273.419999999998Z " fill="#909090" fill-opacity="1" transform="matrix(1,0,0,1,-954,-9272)"></path></svg>