<svg id="SvgjsSvg1032" xmlns="http://www.w3.org/2000/svg" version="1.1" xmlns:xlink="http://www.w3.org/1999/xlink" xmlns:svgjs="http://svgjs.com/svgjs" width="51" height="36"><defs id="SvgjsDefs1033"></defs><path id="SvgjsPath1034" d="M994.99 3593C994.98 3592.72 994.95 3592.45 994.91 3592.18C994.86 3591.91 994.81 3591.6499999999996 994.75 3591.39C994.68 3591.1299999999997 994.6 3590.8799999999997 994.51 3590.6299999999997C994.42 3590.3799999999997 994.3199999999999 3590.1299999999997 994.21 3589.8999999999996C994.47 3589.8199999999997 994.71 3589.7099999999996 994.9300000000001 3589.5499999999997C995.1400000000001 3589.3999999999996 995.33 3589.22 995.49 3589.0099999999998C995.65 3588.7999999999997 995.78 3588.56 995.87 3588.31C995.96 3588.0499999999997 996.01 3587.7799999999997 996.01 3587.5C996.01 3587.36 995.96 3587.24 995.86 3587.15C995.76 3587.05 995.64 3587 995.51 3587C995.36 3587 995.24 3587.05 995.15 3587.15C995.05 3587.2400000000002 995 3587.36 995 3587.5C995 3587.88 994.87 3588.21 994.62 3588.49C994.37 3588.77 994.07 3588.9399999999996 993.7 3588.9799999999996C993.61 3588.8499999999995 993.5200000000001 3588.7199999999993 993.4200000000001 3588.5999999999995C993.33 3588.4699999999993 993.23 3588.3399999999992 993.1300000000001 3588.2199999999993C993.0700000000002 3588.1599999999994 993.0200000000001 3588.0999999999995 992.9600000000002 3588.0399999999995C992.9100000000002 3587.9799999999996 992.8500000000001 3587.9199999999996 992.7900000000002 3587.8599999999997C992.8600000000002 3587.64 992.9200000000002 3587.41 992.9500000000002 3587.1899999999996C992.9900000000001 3586.9599999999996 993.0100000000001 3586.7299999999996 993.0100000000001 3586.4999999999995C993.0100000000001 3585.8799999999997 992.8900000000001 3585.2899999999995 992.6500000000001 3584.7399999999993C992.4100000000001 3584.1999999999994 992.0900000000001 3583.7199999999993 991.6800000000001 3583.3099999999995C991.2800000000001 3582.9099999999994 990.8000000000001 3582.5899999999997 990.2500000000001 3582.3499999999995C989.7100000000002 3582.1199999999994 989.1200000000001 3581.9999999999995 988.5100000000001 3581.9999999999995C987.8900000000001 3581.9999999999995 987.3000000000001 3582.1199999999994 986.7600000000001 3582.3499999999995C986.2100000000002 3582.5899999999992 985.7300000000001 3582.9099999999994 985.3300000000002 3583.3099999999995C984.9200000000002 3583.7199999999993 984.6000000000001 3584.1999999999994 984.3600000000001 3584.7399999999993C984.1200000000001 3585.2899999999995 984.0000000000001 3585.879999999999 984.0000000000001 3586.4999999999995C984.0000000000001 3586.7299999999996 984.0200000000001 3586.9599999999996 984.0600000000001 3587.1899999999996C984.09 3587.4099999999994 984.1500000000001 3587.6399999999994 984.22 3587.8599999999997C984.1600000000001 3587.9199999999996 984.1 3587.9799999999996 984.0500000000001 3588.0399999999995C983.9900000000001 3588.0999999999995 983.94 3588.1599999999994 983.8800000000001 3588.2199999999993C983.7800000000001 3588.3399999999992 983.6800000000001 3588.4699999999993 983.5800000000002 3588.5999999999995C983.4900000000001 3588.7199999999993 983.4000000000002 3588.8499999999995 983.3100000000002 3588.9799999999996C982.9400000000002 3588.9399999999996 982.6300000000002 3588.7699999999995 982.3800000000002 3588.49C982.1300000000002 3588.2099999999996 982.0000000000002 3587.8799999999997 982.0000000000002 3587.5C982.0000000000002 3587.36 981.9500000000003 3587.24 981.8600000000002 3587.15C981.7600000000002 3587.05 981.6400000000002 3587 981.5000000000002 3587C981.3700000000002 3587 981.2500000000002 3587.05 981.1500000000002 3587.15C981.0500000000002 3587.2400000000002 981.0100000000002 3587.36 981.0100000000002 3587.5C981.0100000000002 3587.78 981.0500000000002 3588.05 981.1400000000002 3588.31C981.2300000000002 3588.56 981.3500000000003 3588.7999999999997 981.5100000000002 3589.0099999999998C981.6700000000002 3589.22 981.8600000000002 3589.3999999999996 982.0800000000003 3589.5499999999997C982.3000000000003 3589.7099999999996 982.5400000000003 3589.8199999999997 982.8000000000003 3589.8999999999996C982.6900000000003 3590.1299999999997 982.5800000000003 3590.3799999999997 982.5000000000003 3590.6299999999997C982.4100000000003 3590.8799999999997 982.3300000000004 3591.1299999999997 982.2700000000003 3591.39C982.2000000000003 3591.65 982.1500000000003 3591.91 982.1000000000004 3592.18C982.0600000000004 3592.45 982.0300000000003 3592.72 982.0200000000003 3593L980.5100000000003 3593C980.3600000000004 3593 980.2400000000004 3593.04 980.1500000000003 3593.14C980.0500000000003 3593.24 980.0000000000003 3593.3599999999997 980.0000000000003 3593.49C980.0000000000003 3593.64 980.0500000000003 3593.7599999999998 980.1500000000003 3593.8599999999997C980.2400000000004 3593.95 980.3600000000004 3593.9999999999995 980.5100000000003 3593.9999999999995L982.0200000000003 3593.9999999999995C982.0300000000003 3594.2799999999997 982.0600000000003 3594.5499999999997 982.1000000000004 3594.8099999999995C982.1500000000003 3595.0799999999995 982.2000000000004 3595.3399999999997 982.2700000000003 3595.5999999999995C982.3300000000003 3595.8599999999997 982.4100000000003 3596.1199999999994 982.5000000000003 3596.3699999999994C982.5800000000004 3596.6199999999994 982.6900000000004 3596.859999999999 982.8000000000003 3597.0999999999995C982.5400000000003 3597.1799999999994 982.3000000000003 3597.2899999999995 982.0800000000003 3597.4399999999996C981.8600000000002 3597.5999999999995 981.6700000000003 3597.7799999999997 981.5100000000002 3597.99C981.3500000000003 3598.1899999999996 981.2300000000002 3598.43 981.1400000000002 3598.68C981.0500000000002 3598.94 981.0100000000002 3599.21 981.0100000000002 3599.5C981.0100000000002 3599.64 981.0500000000002 3599.75 981.1500000000002 3599.85C981.2500000000002 3599.95 981.3700000000002 3600 981.5000000000002 3600C981.6400000000002 3600 981.7600000000002 3599.95 981.8600000000002 3599.85C981.9500000000003 3599.75 982.0000000000002 3599.64 982.0000000000002 3599.5C982.0000000000002 3599.12 982.1300000000002 3598.78 982.3800000000002 3598.5C982.6300000000002 3598.22 982.9400000000002 3598.06 983.3100000000002 3598.02C983.4000000000002 3598.15 983.4900000000001 3598.27 983.5800000000002 3598.4C983.6800000000002 3598.53 983.7800000000002 3598.65 983.8800000000001 3598.78C984.19 3599.1400000000003 984.5200000000001 3599.4500000000003 984.8800000000001 3599.73C985.2300000000001 3600.01 985.6100000000001 3600.2400000000002 986.0000000000001 3600.43C986.3900000000001 3600.62 986.7900000000001 3600.7599999999998 987.2200000000001 3600.85C987.6400000000001 3600.95 988.0700000000002 3600.99 988.5100000000001 3600.99C988.94 3600.99 989.3700000000001 3600.95 989.7900000000001 3600.85C990.21 3600.7599999999998 990.6200000000001 3600.62 991.0100000000001 3600.43C991.4000000000001 3600.24 991.7800000000001 3600.0099999999998 992.1300000000001 3599.73C992.4900000000001 3599.45 992.8200000000002 3599.14 993.1300000000001 3598.78C993.2300000000001 3598.65 993.3300000000002 3598.53 993.4200000000001 3598.4C993.5200000000001 3598.27 993.6100000000001 3598.15 993.7 3598.02C994.07 3598.06 994.37 3598.22 994.62 3598.5C994.87 3598.78 995 3599.12 995 3599.5C995 3599.64 995.05 3599.75 995.15 3599.85C995.24 3599.95 995.36 3600 995.51 3600C995.64 3600 995.76 3599.95 995.86 3599.85C995.96 3599.75 996.01 3599.64 996.01 3599.5C996.01 3599.21 995.96 3598.94 995.87 3598.68C995.78 3598.43 995.65 3598.19 995.49 3597.99C995.33 3597.7799999999997 995.14 3597.6 994.9300000000001 3597.4399999999996C994.71 3597.2899999999995 994.47 3597.1799999999994 994.21 3597.0999999999995C994.32 3596.8599999999997 994.4200000000001 3596.6199999999994 994.51 3596.3699999999994C994.6 3596.1199999999994 994.68 3595.859999999999 994.75 3595.5999999999995C994.81 3595.3399999999992 994.86 3595.0799999999995 994.91 3594.8099999999995C994.9499999999999 3594.5499999999993 994.98 3594.2799999999993 994.99 3593.9999999999995L996.5 3593.9999999999995C996.64 3593.9999999999995 996.76 3593.9499999999994 996.86 3593.8599999999997C996.95 3593.7599999999998 997 3593.64 997 3593.49C997 3593.3599999999997 996.95 3593.24 996.86 3593.14C996.76 3593.04 996.64 3593 996.5 3593ZM983.39 3591.1C983.65 3590.3399999999997 984 3589.68 984.4499999999999 3589.1C984.9 3588.5299999999997 985.43 3588.06 986.04 3587.69C986.65 3587.32 987.3 3587.1 988.01 3587.03L988.01 3599.9700000000003C987.3 3599.9 986.65 3599.6800000000003 986.04 3599.3100000000004C985.43 3598.9400000000005 984.9 3598.4700000000003 984.4499999999999 3597.8900000000003C983.9999999999999 3597.3100000000004 983.65 3596.6400000000003 983.39 3595.8900000000003C983.14 3595.1400000000003 983.01 3594.34 983.01 3593.4900000000002C983.01 3592.65 983.14 3591.8500000000004 983.39 3591.1000000000004ZM989.86 3583.27C990.29 3583.46 990.66 3583.71 990.98 3584.03C991.3000000000001 3584.34 991.5500000000001 3584.71 991.73 3585.13C991.91 3585.56 992 3586.01 992 3586.5C992 3586.61 992 3586.71 991.99 3586.82C991.98 3586.9300000000003 991.96 3587.03 991.94 3587.1400000000003C991.69 3586.9500000000003 991.4300000000001 3586.78 991.1500000000001 3586.6400000000003C990.8800000000001 3586.5000000000005 990.6000000000001 3586.38 990.3100000000001 3586.2900000000004C990.0200000000001 3586.1900000000005 989.72 3586.1200000000003 989.4200000000001 3586.0700000000006C989.1200000000001 3586.0200000000004 988.8100000000001 3585.9900000000007 988.5100000000001 3585.9900000000007C988.19 3585.9900000000007 987.8900000000001 3586.020000000001 987.5900000000001 3586.0700000000006C987.2900000000002 3586.120000000001 986.9900000000001 3586.1900000000005 986.7000000000002 3586.2900000000004C986.4100000000002 3586.3800000000006 986.1300000000001 3586.5000000000005 985.8500000000001 3586.6400000000003C985.5800000000002 3586.78 985.3100000000002 3586.9500000000003 985.0600000000002 3587.1400000000003C985.0400000000002 3587.03 985.0200000000002 3586.9300000000003 985.0100000000002 3586.82C985.0000000000002 3586.71 985.0000000000002 3586.61 985.0000000000002 3586.5C985.0000000000002 3586.01 985.0900000000003 3585.56 985.2800000000002 3585.13C985.4600000000002 3584.71 985.7100000000002 3584.34 986.0300000000002 3584.03C986.3500000000003 3583.71 986.7200000000003 3583.46 987.1400000000002 3583.27C987.5700000000002 3583.09 988.0200000000002 3583 988.5100000000002 3583C988.9900000000002 3583 989.4400000000002 3583.09 989.8600000000002 3583.27ZM989 3587.03C989.7 3587.1000000000004 990.35 3587.32 990.96 3587.69C991.57 3588.06 992.1 3588.53 992.5500000000001 3589.1C993.0100000000001 3589.68 993.36 3590.3399999999997 993.6200000000001 3591.1C993.8800000000001 3591.85 994.0000000000001 3592.65 994.0000000000001 3593.49C994.0000000000001 3594.3399999999997 993.8800000000001 3595.14 993.6200000000001 3595.89C993.3600000000001 3596.64 993.0100000000001 3597.31 992.5500000000001 3597.89C992.1 3598.47 991.57 3598.94 990.96 3599.31C990.35 3599.68 989.7 3599.9 989 3599.97Z " fill="#909090" fill-opacity="1" transform="matrix(1,0,0,1,-946,-3582)"></path><path id="SvgjsPath1035" d="M969.11 3612.39C969.6800000000001 3612.39 970.17 3612.19 970.58 3611.7799999999997C970.99 3611.37 971.2 3610.87 971.2 3610.29L971.2 3599.09C971.2 3598.52 970.99 3598.03 970.58 3597.6200000000003C970.1700000000001 3597.2100000000005 969.6800000000001 3597.0000000000005 969.11 3597.0000000000005L950.89 3597.0000000000005C950.3199999999999 3597.0000000000005 949.83 3597.2100000000005 949.42 3597.6200000000003C949.01 3598.03 948.8 3598.5200000000004 948.8 3599.09L948.8 3610.29C948.8 3610.87 949.01 3611.37 949.42 3611.7799999999997C949.8299999999999 3612.1899999999996 950.3199999999999 3612.39 950.89 3612.39ZM950.2 3599.09C950.2 3598.9 950.2700000000001 3598.7400000000002 950.4000000000001 3598.6000000000004C950.5400000000001 3598.4600000000005 950.7 3598.3900000000003 950.8900000000001 3598.3900000000003L969.1100000000001 3598.3900000000003C969.3000000000002 3598.3900000000003 969.4600000000002 3598.4600000000005 969.6000000000001 3598.6000000000004C969.7300000000001 3598.7400000000002 969.8000000000002 3598.9000000000005 969.8000000000002 3599.09L969.8000000000002 3610.29C969.8000000000002 3610.49 969.7300000000001 3610.66 969.6000000000001 3610.79C969.4600000000002 3610.93 969.3000000000002 3611 969.1100000000001 3611L950.8900000000001 3611C950.7 3611 950.5400000000001 3610.93 950.4000000000001 3610.79C950.2700000000001 3610.66 950.2 3610.49 950.2 3610.29ZM946.7 3613.79C946.51 3613.79 946.34 3613.86 946.21 3613.99C946.07 3614.1299999999997 946 3614.2999999999997 946 3614.5L946 3615.89C946 3616.48 946.21 3616.97 946.62 3617.3799999999997C947.03 3617.7899999999995 947.52 3617.9999999999995 948.11 3617.9999999999995L971.89 3617.9999999999995C972.48 3617.9999999999995 972.97 3617.7899999999995 973.38 3617.3799999999997C973.79 3616.97 974 3616.4799999999996 974 3615.89L974 3614.5C974 3614.3 973.93 3614.13 973.79 3613.99C973.66 3613.8599999999997 973.49 3613.79 973.3 3613.79ZM948.11 3616.59C947.9 3616.59 947.74 3616.52 947.6 3616.3900000000003C947.46 3616.2500000000005 947.39 3616.09 947.39 3615.8900000000003L947.39 3615.2000000000003L972.61 3615.2000000000003L972.61 3615.8900000000003C972.61 3616.09 972.54 3616.2500000000005 972.4 3616.3900000000003C972.26 3616.5200000000004 972.1 3616.59 971.89 3616.59Z " fill="#909090" fill-opacity="1" transform="matrix(1,0,0,1,-946,-3582)"></path></svg>