<svg id="SvgjsSvg1024" xmlns="http://www.w3.org/2000/svg" version="1.1" xmlns:xlink="http://www.w3.org/1999/xlink" xmlns:svgjs="http://svgjs.com/svgjs" width="46" height="36"><defs id="SvgjsDefs1025"></defs><path id="SvgjsPath1026" d="M983.81 3456.88C983.42 3456.8 983.05 3456.69 982.6899999999999 3456.53C982.3299999999999 3456.3700000000003 981.9899999999999 3456.1800000000003 981.67 3455.9500000000003C981.3399999999999 3455.7200000000003 981.04 3455.4500000000003 980.76 3455.15C980.48 3454.85 980.23 3454.53 980.01 3454.17C979.79 3453.82 979.61 3453.44 979.46 3453.05C979.3100000000001 3452.6600000000003 979.2 3452.25 979.12 3451.82C979.04 3451.3900000000003 979 3450.96 979 3450.51C979 3449.7700000000004 979.08 3449.0800000000004 979.23 3448.44C979.38 3447.8 979.58 3447.19 979.83 3446.6C980.08 3446.0099999999998 980.36 3445.44 980.69 3444.89C981.0100000000001 3444.3399999999997 981.35 3443.7799999999997 981.7 3443.22C981.96 3442.79 982.23 3442.35 982.5 3441.91C982.76 3441.47 983.02 3441.0099999999998 983.27 3440.54C983.51 3440.06 983.74 3439.56 983.96 3439.04C984.1700000000001 3438.5099999999998 984.35 3437.96 984.52 3437.37C984.54 3437.2599999999998 984.6 3437.17 984.6899999999999 3437.1C984.78 3437.0299999999997 984.89 3437 984.9999999999999 3437C985.1099999999999 3437 985.2099999999999 3437.03 985.2999999999998 3437.1C985.3899999999999 3437.17 985.4499999999998 3437.2599999999998 985.4699999999998 3437.37C985.6399999999998 3437.96 985.8299999999998 3438.5099999999998 986.0399999999998 3439.04C986.2599999999999 3439.56 986.4899999999999 3440.06 986.7299999999999 3440.54C986.9699999999999 3441.0099999999998 987.2299999999999 3441.47 987.4999999999999 3441.91C987.7599999999999 3442.35 988.0299999999999 3442.79 988.2999999999998 3443.23C988.6499999999999 3443.78 988.9899999999999 3444.34 989.3099999999998 3444.89C989.6299999999999 3445.44 989.9199999999998 3446.0099999999998 990.1699999999998 3446.6C990.4199999999998 3447.19 990.6199999999999 3447.7999999999997 990.7699999999999 3448.44C990.9199999999998 3449.08 990.9899999999999 3449.77 990.9899999999999 3450.51C990.9899999999999 3450.96 990.9499999999999 3451.3900000000003 990.8799999999999 3451.82C990.8099999999998 3452.25 990.6899999999998 3452.6600000000003 990.5499999999998 3453.05C990.3999999999999 3453.4500000000003 990.2199999999998 3453.8300000000004 989.9999999999999 3454.1800000000003C989.7799999999999 3454.53 989.5299999999999 3454.8500000000004 989.2499999999999 3455.15C988.9699999999999 3455.4500000000003 988.6699999999998 3455.7200000000003 988.3499999999999 3455.9500000000003C988.0199999999999 3456.1800000000003 987.68 3456.3700000000003 987.3199999999999 3456.53C986.9499999999999 3456.69 986.5799999999999 3456.8 986.1899999999999 3456.88C985.81 3456.96 985.41 3457 984.9999999999999 3457C984.5899999999999 3457 984.1999999999999 3456.96 983.8099999999998 3456.88ZM984.45 3440.39C984.25 3440.7999999999997 984.0500000000001 3441.19 983.84 3441.58C983.64 3441.96 983.4200000000001 3442.33 983.2 3442.68C982.99 3443.04 982.7700000000001 3443.3999999999996 982.5400000000001 3443.7599999999998C982.21 3444.2999999999997 981.8800000000001 3444.8399999999997 981.57 3445.3599999999997C981.2600000000001 3445.8799999999997 980.99 3446.41 980.7600000000001 3446.95C980.5300000000001 3447.49 980.3500000000001 3448.0499999999997 980.2100000000002 3448.64C980.0700000000002 3449.22 980.0100000000001 3449.8399999999997 980.0100000000001 3450.5099999999998C980.0100000000001 3451.29 980.1300000000001 3452.0099999999998 980.3900000000001 3452.68C980.6400000000001 3453.35 980.9900000000001 3453.94 981.44 3454.43C981.8800000000001 3454.9199999999996 982.4100000000001 3455.2999999999997 983.0200000000001 3455.58C983.6300000000001 3455.86 984.2900000000001 3456 985.0000000000001 3456C985.7100000000002 3456 986.3700000000001 3455.86 986.9800000000001 3455.58C987.5900000000001 3455.2999999999997 988.1200000000001 3454.92 988.5700000000002 3454.43C989.0100000000002 3453.94 989.3600000000001 3453.35 989.6200000000001 3452.68C989.8700000000001 3452.0099999999998 990.0000000000001 3451.29 990.0000000000001 3450.5099999999998C990.0000000000001 3449.8399999999997 989.9300000000001 3449.22 989.7900000000001 3448.64C989.6500000000001 3448.06 989.47 3447.5 989.2300000000001 3446.96C989.0000000000001 3446.42 988.7300000000001 3445.89 988.4200000000002 3445.36C988.1200000000002 3444.84 987.7900000000002 3444.3 987.4500000000002 3443.76C987.2300000000001 3443.4100000000003 987.0100000000001 3443.05 986.7900000000002 3442.69C986.5700000000002 3442.33 986.3600000000002 3441.96 986.1500000000002 3441.58C985.9400000000002 3441.19 985.7400000000002 3440.7999999999997 985.5400000000002 3440.39C985.3500000000001 3439.99 985.1700000000002 3439.56 985.0000000000002 3439.12C984.8300000000003 3439.56 984.6400000000002 3439.99 984.4500000000003 3440.39Z " fill="#909090" fill-opacity="1" transform="matrix(1,0,0,1,-945,-3437)"></path><path id="SvgjsPath1027" d="M968.11 3467.39C968.6800000000001 3467.39 969.17 3467.19 969.58 3466.7799999999997C969.99 3466.37 970.2 3465.87 970.2 3465.29L970.2 3454.09C970.2 3453.52 969.99 3453.03 969.58 3452.6200000000003C969.1700000000001 3452.2100000000005 968.6800000000001 3452.0000000000005 968.11 3452.0000000000005L949.89 3452.0000000000005C949.3199999999999 3452.0000000000005 948.83 3452.2100000000005 948.42 3452.6200000000003C948.01 3453.03 947.8 3453.5200000000004 947.8 3454.09L947.8 3465.29C947.8 3465.87 948.01 3466.37 948.42 3466.7799999999997C948.8299999999999 3467.1899999999996 949.3199999999999 3467.39 949.89 3467.39ZM949.2 3454.09C949.2 3453.9 949.2700000000001 3453.7400000000002 949.4000000000001 3453.6000000000004C949.5400000000001 3453.4600000000005 949.7 3453.3900000000003 949.8900000000001 3453.3900000000003L968.1100000000001 3453.3900000000003C968.3000000000002 3453.3900000000003 968.4600000000002 3453.4600000000005 968.6000000000001 3453.6000000000004C968.7300000000001 3453.7400000000002 968.8000000000002 3453.9000000000005 968.8000000000002 3454.09L968.8000000000002 3465.29C968.8000000000002 3465.49 968.7300000000001 3465.66 968.6000000000001 3465.79C968.4600000000002 3465.93 968.3000000000002 3466 968.1100000000001 3466L949.8900000000001 3466C949.7 3466 949.5400000000001 3465.93 949.4000000000001 3465.79C949.2700000000001 3465.66 949.2 3465.49 949.2 3465.29ZM945.7 3468.79C945.51 3468.79 945.34 3468.86 945.21 3468.99C945.07 3469.1299999999997 945 3469.2999999999997 945 3469.5L945 3470.89C945 3471.48 945.21 3471.97 945.62 3472.3799999999997C946.03 3472.7899999999995 946.52 3472.9999999999995 947.11 3472.9999999999995L970.89 3472.9999999999995C971.48 3472.9999999999995 971.97 3472.7899999999995 972.38 3472.3799999999997C972.79 3471.97 973 3471.4799999999996 973 3470.89L973 3469.5C973 3469.3 972.93 3469.13 972.79 3468.99C972.66 3468.8599999999997 972.49 3468.79 972.3 3468.79ZM947.11 3471.59C946.9 3471.59 946.74 3471.52 946.6 3471.3900000000003C946.46 3471.2500000000005 946.39 3471.09 946.39 3470.8900000000003L946.39 3470.2000000000003L971.61 3470.2000000000003L971.61 3470.8900000000003C971.61 3471.09 971.54 3471.2500000000005 971.4 3471.3900000000003C971.26 3471.5200000000004 971.1 3471.59 970.89 3471.59Z " fill="#909090" fill-opacity="1" transform="matrix(1,0,0,1,-945,-3437)"></path></svg>