<svg id="SvgjsSvg1045" xmlns="http://www.w3.org/2000/svg" version="1.1" xmlns:xlink="http://www.w3.org/1999/xlink" xmlns:svgjs="http://svgjs.com/svgjs" width="24" height="27"><defs id="SvgjsDefs1046"></defs><path id="SvgjsPath1047" d="M1529.99 7496.39C1529.97 7496.01 1529.93 7495.63 1529.8700000000001 7495.25C1529.8100000000002 7494.87 1529.74 7494.51 1529.64 7494.15C1529.5500000000002 7493.79 1529.44 7493.429999999999 1529.3200000000002 7493.08C1529.19 7492.73 1529.0500000000002 7492.39 1528.89 7492.0599999999995C1529.26 7491.95 1529.5900000000001 7491.789999999999 1529.9 7491.58C1530.2 7491.36 1530.47 7491.11 1530.69 7490.8099999999995C1530.91 7490.509999999999 1531.0900000000001 7490.19 1531.22 7489.83C1531.34 7489.48 1531.41 7489.1 1531.41 7488.7C1531.41 7488.51 1531.3400000000001 7488.34 1531.2 7488.21C1531.07 7488.07 1530.9 7488 1530.71 7488C1530.51 7488 1530.3400000000001 7488.07 1530.21 7488.21C1530.07 7488.34 1530 7488.51 1530 7488.7C1530 7489.23 1529.82 7489.69 1529.47 7490.08C1529.1200000000001 7490.48 1528.69 7490.71 1528.18 7490.78C1528.05 7490.59 1527.92 7490.41 1527.79 7490.24C1527.6599999999999 7490.0599999999995 1527.52 7489.88 1527.3799999999999 7489.71C1527.3 7489.63 1527.2299999999998 7489.54 1527.1499999999999 7489.46C1527.07 7489.37 1526.9899999999998 7489.29 1526.9099999999999 7489.2C1527.0099999999998 7488.889999999999 1527.09 7488.58 1527.1399999999999 7488.26C1527.1899999999998 7487.9400000000005 1527.2099999999998 7487.62 1527.2099999999998 7487.3C1527.2099999999998 7486.43 1527.0399999999997 7485.610000000001 1526.7099999999998 7484.84C1526.3799999999999 7484.08 1525.9299999999998 7483.41 1525.36 7482.84C1524.79 7482.27 1524.12 7481.82 1523.36 7481.49C1522.59 7481.16 1521.77 7481 1520.9099999999999 7481C1520.04 7481 1519.2299999999998 7481.16 1518.4599999999998 7481.49C1517.6999999999998 7481.82 1517.0299999999997 7482.2699999999995 1516.4599999999998 7482.84C1515.8899999999999 7483.41 1515.4399999999998 7484.08 1515.1 7484.84C1514.77 7485.610000000001 1514.61 7486.43 1514.61 7487.3C1514.61 7487.62 1514.6299999999999 7487.9400000000005 1514.6799999999998 7488.26C1514.7299999999998 7488.58 1514.81 7488.89 1514.9099999999999 7489.2C1514.82 7489.29 1514.7399999999998 7489.37 1514.6699999999998 7489.46C1514.59 7489.54 1514.5099999999998 7489.63 1514.4299999999998 7489.71C1514.2899999999997 7489.88 1514.1499999999999 7490.06 1514.0199999999998 7490.24C1513.8799999999997 7490.41 1513.7499999999998 7490.59 1513.6299999999997 7490.78C1513.1199999999997 7490.71 1512.6799999999996 7490.48 1512.3299999999997 7490.08C1511.9799999999998 7489.69 1511.7999999999997 7489.23 1511.7999999999997 7488.7C1511.7999999999997 7488.51 1511.7299999999998 7488.34 1511.5999999999997 7488.21C1511.4599999999996 7488.07 1511.2999999999997 7488 1511.1099999999997 7488C1510.9099999999996 7488 1510.7499999999998 7488.07 1510.6099999999997 7488.21C1510.4799999999996 7488.34 1510.4099999999996 7488.51 1510.4099999999996 7488.7C1510.4099999999996 7489.099999999999 1510.4699999999996 7489.48 1510.5899999999997 7489.83C1510.7199999999998 7490.19 1510.8899999999996 7490.51 1511.1099999999997 7490.8099999999995C1511.3399999999997 7491.11 1511.5999999999997 7491.36 1511.9099999999996 7491.58C1512.2199999999996 7491.79 1512.5599999999997 7491.95 1512.9199999999996 7492.0599999999995C1512.7599999999995 7492.389999999999 1512.6199999999997 7492.73 1512.4899999999996 7493.08C1512.3699999999997 7493.43 1512.2599999999995 7493.79 1512.1699999999996 7494.15C1512.0799999999997 7494.509999999999 1512.0099999999995 7494.87 1511.9499999999996 7495.25C1511.8899999999996 7495.63 1511.8499999999997 7496.01 1511.8299999999997 7496.39L1509.7099999999998 7496.39C1509.5099999999998 7496.39 1509.34 7496.46 1509.2099999999998 7496.6C1509.0699999999997 7496.740000000001 1508.9999999999998 7496.900000000001 1508.9999999999998 7497.09C1508.9999999999998 7497.29 1509.0699999999997 7497.46 1509.2099999999998 7497.6C1509.34 7497.7300000000005 1509.5099999999998 7497.8 1509.7099999999998 7497.8L1511.8299999999997 7497.8C1511.8499999999997 7498.1900000000005 1511.8899999999996 7498.56 1511.9499999999996 7498.9400000000005C1512.0099999999995 7499.31 1512.0799999999997 7499.68 1512.1699999999996 7500.040000000001C1512.2599999999995 7500.410000000001 1512.3699999999997 7500.77 1512.4899999999996 7501.120000000001C1512.6199999999997 7501.470000000001 1512.7599999999995 7501.81 1512.9199999999996 7502.140000000001C1512.5599999999997 7502.250000000001 1512.2199999999996 7502.410000000002 1511.9099999999996 7502.620000000001C1511.5999999999997 7502.840000000001 1511.3399999999997 7503.090000000001 1511.1099999999997 7503.380000000001C1510.8899999999996 7503.670000000001 1510.7199999999996 7504.000000000001 1510.5899999999997 7504.360000000001C1510.4699999999998 7504.72 1510.4099999999996 7505.1 1510.4099999999996 7505.500000000001C1510.4099999999996 7505.6900000000005 1510.4799999999996 7505.860000000001 1510.6099999999997 7505.990000000001C1510.7499999999998 7506.130000000001 1510.9099999999996 7506.200000000001 1511.1099999999997 7506.200000000001C1511.2999999999997 7506.200000000001 1511.4599999999996 7506.130000000001 1511.5999999999997 7505.990000000001C1511.7299999999998 7505.860000000001 1511.7999999999997 7505.6900000000005 1511.7999999999997 7505.500000000001C1511.7999999999997 7504.960000000001 1511.9799999999998 7504.500000000001 1512.3299999999997 7504.110000000001C1512.6799999999996 7503.710000000001 1513.1199999999997 7503.490000000001 1513.6299999999997 7503.420000000001C1513.7499999999995 7503.600000000001 1513.8799999999997 7503.780000000001 1514.0199999999998 7503.960000000001C1514.1499999999999 7504.140000000001 1514.2899999999997 7504.320000000001 1514.4299999999998 7504.490000000001C1514.87 7504.990000000001 1515.33 7505.43 1515.83 7505.820000000001C1516.33 7506.210000000001 1516.85 7506.530000000001 1517.3899999999999 7506.8C1517.9399999999998 7507.06 1518.5099999999998 7507.26 1519.1 7507.39C1519.6999999999998 7507.530000000001 1520.3 7507.59 1520.9099999999999 7507.59C1521.5199999999998 7507.59 1522.12 7507.53 1522.7099999999998 7507.39C1523.2899999999997 7507.26 1523.86 7507.06 1524.4199999999998 7506.8C1524.9699999999998 7506.53 1525.4899999999998 7506.21 1525.9899999999998 7505.820000000001C1526.4799999999998 7505.43 1526.9499999999998 7504.990000000001 1527.3799999999999 7504.490000000001C1527.52 7504.320000000001 1527.6599999999999 7504.14 1527.79 7503.960000000001C1527.92 7503.780000000001 1528.05 7503.600000000001 1528.18 7503.420000000001C1528.69 7503.490000000001 1529.1200000000001 7503.710000000001 1529.47 7504.110000000001C1529.82 7504.500000000001 1530 7504.960000000001 1530 7505.500000000001C1530 7505.6900000000005 1530.07 7505.860000000001 1530.21 7505.990000000001C1530.3400000000001 7506.130000000001 1530.51 7506.200000000001 1530.71 7506.200000000001C1530.9 7506.200000000001 1531.07 7506.130000000001 1531.2 7505.990000000001C1531.3400000000001 7505.860000000001 1531.41 7505.6900000000005 1531.41 7505.500000000001C1531.41 7505.100000000001 1531.3400000000001 7504.720000000001 1531.22 7504.360000000001C1531.09 7504.000000000001 1530.91 7503.670000000001 1530.69 7503.380000000001C1530.47 7503.090000000001 1530.2 7502.840000000001 1529.9 7502.620000000001C1529.5900000000001 7502.410000000001 1529.26 7502.250000000001 1528.89 7502.140000000001C1529.0500000000002 7501.810000000001 1529.19 7501.470000000001 1529.3200000000002 7501.120000000001C1529.44 7500.77 1529.5500000000002 7500.410000000001 1529.64 7500.040000000001C1529.74 7499.680000000001 1529.8100000000002 7499.310000000001 1529.8700000000001 7498.9400000000005C1529.93 7498.56 1529.97 7498.1900000000005 1529.99 7497.8L1532.11 7497.8C1532.3 7497.8 1532.4599999999998 7497.7300000000005 1532.6 7497.6C1532.73 7497.46 1532.8 7497.29 1532.8 7497.09C1532.8 7496.900000000001 1532.73 7496.74 1532.6 7496.6C1532.4599999999998 7496.46 1532.3 7496.39 1532.11 7496.39ZM1513.75 7493.74C1514.11 7492.679999999999 1514.61 7491.75 1515.23 7490.95C1515.8600000000001 7490.139999999999 1516.6 7489.48 1517.46 7488.96C1518.31 7488.45 1519.23 7488.14 1520.21 7488.04L1520.21 7506.16C1519.23 7506.0599999999995 1518.31 7505.75 1517.46 7505.23C1516.6000000000001 7504.719999999999 1515.8600000000001 7504.0599999999995 1515.23 7503.24C1514.6100000000001 7502.429999999999 1514.1100000000001 7501.5 1513.75 7500.45C1513.39 7499.4 1513.21 7498.28 1513.21 7497.09C1513.21 7495.91 1513.39 7494.79 1513.75 7493.74ZM1522.81 7482.78C1523.3999999999999 7483.04 1523.9199999999998 7483.389999999999 1524.37 7483.84C1524.81 7484.28 1525.1599999999999 7484.8 1525.4199999999998 7485.39C1525.6799999999998 7485.9800000000005 1525.8 7486.62 1525.8 7487.3C1525.8 7487.45 1525.8 7487.6 1525.78 7487.75C1525.77 7487.9 1525.75 7488.05 1525.72 7488.19C1525.3700000000001 7487.929999999999 1525 7487.7 1524.6100000000001 7487.5C1524.23 7487.31 1523.8400000000001 7487.14 1523.43 7487C1523.03 7486.87 1522.6100000000001 7486.76 1522.19 7486.69C1521.76 7486.629999999999 1521.3400000000001 7486.589999999999 1520.91 7486.589999999999C1520.47 7486.589999999999 1520.0400000000002 7486.629999999999 1519.6200000000001 7486.69C1519.2 7486.759999999999 1518.7900000000002 7486.87 1518.39 7487C1517.98 7487.14 1517.5800000000002 7487.31 1517.2 7487.5C1516.81 7487.7 1516.44 7487.93 1516.0800000000002 7488.19C1516.0500000000002 7488.049999999999 1516.0300000000002 7487.9 1516.0200000000002 7487.75C1516.0100000000002 7487.6 1516.0000000000002 7487.45 1516.0000000000002 7487.3C1516.0000000000002 7486.62 1516.1300000000003 7485.9800000000005 1516.3900000000003 7485.39C1516.6500000000003 7484.8 1517.0000000000002 7484.280000000001 1517.4400000000003 7483.84C1517.8800000000003 7483.39 1518.4000000000003 7483.04 1519.0000000000002 7482.78C1519.6000000000001 7482.5199999999995 1520.2300000000002 7482.389999999999 1520.9100000000003 7482.389999999999C1521.5800000000004 7482.389999999999 1522.2200000000003 7482.5199999999995 1522.8100000000004 7482.78ZM1521.61 7488.04C1522.58 7488.14 1523.49 7488.45 1524.35 7488.96C1525.1999999999998 7489.4800000000005 1525.9399999999998 7490.14 1526.58 7490.95C1527.21 7491.75 1527.71 7492.679999999999 1528.07 7493.74C1528.4299999999998 7494.79 1528.61 7495.91 1528.61 7497.09C1528.61 7498.28 1528.4299999999998 7499.400000000001 1528.07 7500.45C1527.71 7501.5 1527.21 7502.429999999999 1526.58 7503.24C1525.9399999999998 7504.0599999999995 1525.1999999999998 7504.719999999999 1524.35 7505.23C1523.49 7505.75 1522.58 7506.0599999999995 1521.61 7506.16Z " fill="#909090" fill-opacity="1" transform="matrix(1,0,0,1,-1509,-7481)"></path></svg>