<svg id="SvgjsSvg1015" xmlns="http://www.w3.org/2000/svg" version="1.1" xmlns:xlink="http://www.w3.org/1999/xlink" xmlns:svgjs="http://svgjs.com/svgjs" width="15" height="28"><defs id="SvgjsDefs1016"><clipPath id="SvgjsClipPath1019"><path id="SvgjsPath1018" d="M951 6925.5C951 6921.35786 954.35786 6918 958.5 6918L958.5 6918C962.64214 6918 966 6921.35786 966 6925.5L966 6938.5C966 6942.64214 962.64214 6946 958.5 6946L958.5 6946C954.35786 6946 951 6942.64214 951 6938.5Z " fill="#ffffff"></path></clipPath></defs><path id="SvgjsPath1017" d="M951 6925.5C951 6921.35786 954.35786 6918 958.5 6918L958.5 6918C962.64214 6918 966 6921.35786 966 6925.5L966 6938.5C966 6942.64214 962.64214 6946 958.5 6946L958.5 6946C954.35786 6946 951 6942.64214 951 6938.5Z " fill-opacity="0" fill="#ffffff" stroke-dasharray="0" stroke-linejoin="miter" stroke-linecap="butt" stroke-opacity="1" stroke="#b0aaa6" stroke-miterlimit="50" stroke-width="2" clip-path="url(&quot;#SvgjsClipPath1019&quot;)" transform="matrix(1,0,0,1,-951,-6918)"></path><path id="SvgjsPath1020" d="M958 6925.5C958 6925.22386 958.22386 6925 958.5 6925L958.5 6925C958.77614 6925 959 6925.22386 959 6925.5L959 6928.5C959 6928.77614 958.77614 6929 958.5 6929L958.5 6929C958.22386 6929 958 6928.77614 958 6928.5Z " fill="#b0aaa6" fill-opacity="1" transform="matrix(1,0,0,1,-951,-6918)"></path></svg>