<svg id="SvgjsSvg1008" xmlns="http://www.w3.org/2000/svg" version="1.1" xmlns:xlink="http://www.w3.org/1999/xlink" xmlns:svgjs="http://svgjs.com/svgjs" width="28" height="46"><defs id="SvgjsDefs1009"></defs><path id="SvgjsPath1010" d="M406.23 2346.46L406.23 2334.27C408.26 2333.1 409.51 2330.95 409.51 2328.58C409.51 2324.95 406.55 2322 402.92 2322C399.29 2322 396.34000000000003 2324.95 396.34000000000003 2328.58C396.34000000000003 2330.95 397.58000000000004 2333.1 399.62 2334.27L399.62 2341.38C399.08 2341 398.42 2340.77 397.72 2340.77C396.44000000000005 2340.77 395.33000000000004 2341.5 394.78000000000003 2342.56C394.19000000000005 2342 393.39000000000004 2341.66 392.51000000000005 2341.66C390.86000000000007 2341.66 389.4800000000001 2342.8799999999997 389.24000000000007 2344.47C388.70000000000005 2344.0699999999997 388.0300000000001 2343.8399999999997 387.30000000000007 2343.8399999999997C385.4800000000001 2343.8399999999997 384.00000000000006 2345.3199999999997 384.00000000000006 2347.14L384.00000000000006 2356.62C384.00000000000006 2360.49 385.3500000000001 2364.2799999999997 387.7900000000001 2367.29C387.93000000000006 2367.47 388.13000000000005 2367.55 388.3300000000001 2367.55C388.4900000000001 2367.55 388.6500000000001 2367.5 388.7800000000001 2367.4C389.0800000000001 2367.15 389.12000000000006 2366.71 388.8800000000001 2366.4100000000003C386.6400000000001 2363.65 385.4000000000001 2360.1700000000005 385.4000000000001 2356.6200000000003L385.4000000000001 2347.1400000000003C385.4000000000001 2346.09 386.2600000000001 2345.2400000000002 387.30000000000007 2345.2400000000002C388.3500000000001 2345.2400000000002 389.2100000000001 2346.09 389.2100000000001 2347.1400000000003L389.2100000000001 2350.28C389.2100000000001 2350.67 389.5200000000001 2350.98 389.9100000000001 2350.98C390.2900000000001 2350.98 390.61000000000007 2350.67 390.61000000000007 2350.28L390.61000000000007 2344.96C390.61000000000007 2343.91 391.4600000000001 2343.06 392.51000000000005 2343.06C393.56000000000006 2343.06 394.41 2343.91 394.41 2344.96L394.41 2349.19C394.41 2349.58 394.73 2349.9 395.11 2349.9C395.5 2349.9 395.82 2349.58 395.82 2349.19L395.82 2344.07C395.82 2343.03 396.67 2342.17 397.71999999999997 2342.17C398.77 2342.17 399.61999999999995 2343.03 399.61999999999995 2344.07L399.61999999999995 2350.04C399.61999999999995 2350.43 399.92999999999995 2350.74 400.31999999999994 2350.74C400.7099999999999 2350.74 401.0199999999999 2350.43 401.0199999999999 2350.04L401.0199999999999 2332.86C401.0199999999999 2331.81 401.86999999999995 2330.96 402.9199999999999 2330.96C403.9699999999999 2330.96 404.8199999999999 2331.81 404.8199999999999 2332.86L404.8199999999999 2355.61C404.8199999999999 2356 405.1399999999999 2356.31 405.52999999999986 2356.31C405.90999999999985 2356.31 406.22999999999985 2356 406.22999999999985 2355.61L406.22999999999985 2347.92L408.24999999999983 2348.52C409.53999999999985 2348.91 410.4399999999998 2350.11 410.4399999999998 2351.46L410.4399999999998 2357.48C410.4399999999998 2359.51 409.73999999999984 2361.4900000000002 408.4599999999998 2363.06C407.1899999999998 2364.63 405.3899999999998 2365.72 403.4099999999998 2366.14C403.0299999999998 2366.22 402.7899999999998 2366.5899999999997 402.8699999999998 2366.97C402.93999999999977 2367.2999999999997 403.2299999999998 2367.5299999999997 403.5599999999998 2367.5299999999997C403.5999999999998 2367.5299999999997 403.64999999999975 2367.5199999999995 403.69999999999976 2367.5099999999998C405.9999999999998 2367.0299999999997 408.06999999999977 2365.7599999999998 409.5499999999998 2363.9399999999996C411.0299999999998 2362.1199999999994 411.8399999999998 2359.8299999999995 411.8399999999998 2357.4799999999996L411.8399999999998 2351.4599999999996C411.8399999999998 2349.4999999999995 410.5299999999998 2347.74 408.6499999999998 2347.1799999999994ZM401.63 2327.29C401.9 2327.0099999999998 401.9 2326.57 401.63 2326.3C401.35 2326.02 400.90999999999997 2326.02 400.64 2326.3C399.44 2327.4900000000002 399.38 2329.4 400.45 2330.6600000000003C399.99 2331.1800000000003 399.69 2331.8500000000004 399.63 2332.5800000000004C398.44 2331.6100000000006 397.74 2330.1600000000003 397.74 2328.5800000000004C397.74 2325.7200000000003 400.06 2323.4000000000005 402.92 2323.4000000000005C405.78000000000003 2323.4000000000005 408.11 2325.7200000000007 408.11 2328.5800000000004C408.11 2330.1600000000003 407.40000000000003 2331.6100000000006 406.21000000000004 2332.5800000000004C406.15000000000003 2331.8500000000004 405.85 2331.1800000000003 405.39000000000004 2330.6600000000003C405.89000000000004 2330.0800000000004 406.16 2329.3500000000004 406.16 2328.5800000000004C406.16 2327.7200000000003 405.82000000000005 2326.9100000000003 405.21000000000004 2326.3C404.93000000000006 2326.02 404.49 2326.02 404.22 2326.3C403.94000000000005 2326.57 403.94000000000005 2327.01 404.22 2327.29C404.56 2327.63 404.75 2328.09 404.75 2328.58C404.75 2329.0499999999997 404.57 2329.49 404.25 2329.83C403.85 2329.65 403.4 2329.5499999999997 402.92 2329.5499999999997C402.45 2329.5499999999997 402 2329.6499999999996 401.59000000000003 2329.83C400.92 2329.12 400.93 2327.99 401.63000000000005 2327.29Z " fill="#909090" fill-opacity="1" transform="matrix(1,0,0,1,-384,-2322)"></path></svg>