<svg id="SvgjsSvg1014" xmlns="http://www.w3.org/2000/svg" version="1.1" xmlns:xlink="http://www.w3.org/1999/xlink" xmlns:svgjs="http://svgjs.com/svgjs" width="69" height="32"><defs id="SvgjsDefs1015"></defs><path id="SvgjsPath1016" d="M1120.10678 2358.96365C1122.8927800000001 2359.1333600000003 1125.59393 2357.93127 1127.34048 2355.74631C1128.74055 2354.00683 1130.64974 2352.7906 1132.7922700000001 2352.2319899999998C1132.9407600000002 2355.9867299999996 1134.2630500000002 2359.6141799999996 1136.56822 2362.55575L1136.56115 2365.17912C1136.5540799999999 2365.61046 1136.90056 2365.9569399999996 1137.3319 2365.94987C1137.75616 2365.94987 1138.1026499999998 2365.6033899999998 1138.1026499999998 2365.17912L1138.1167899999998 2362.27998C1138.1167899999998 2362.09613 1138.0602199999998 2361.92643 1137.94708 2361.7850099999996C1135.69848 2359.0131499999998 1134.4256899999998 2355.5341899999994 1134.33376 2351.9632999999994C1134.68731 2351.9208699999995 1146.55964 2351.8430899999994 1146.55964 2351.8430899999994C1145.39291 2353.0663799999993 1144.74238 2354.6502999999993 1144.7353 2356.340289999999C1144.7353 2356.764549999999 1145.07471 2357.103969999999 1145.50605 2357.1110399999993C1145.93031 2357.1110399999993 1146.28387 2356.7574899999995 1146.28387 2356.3332199999995C1146.29094 2355.0109299999995 1146.80713 2353.7734899999996 1147.74758 2352.8330399999995C1148.61025 2351.9703699999995 1149.72748 2351.4612499999994 1150.92956 2351.3763999999996C1150.9932000000001 2351.3834699999998 1155.12977 2351.3622599999994 1155.12977 2351.3622599999994C1155.56818 2351.3622599999994 1155.91466 2351.0157799999993 1155.90759 2350.5844399999996C1155.90759 2350.16018 1155.56818 2349.8207599999996 1155.14391 2349.8207599999996C1155.14391 2349.8207599999996 1151.04976 2349.8278299999997 1150.95077 2349.8278299999997C1150.4345799999999 2349.79247 1149.95375 2349.5661999999998 1149.58605 2349.1984999999995C1149.1759299999999 2348.7883799999995 1148.9496499999998 2348.2368299999994 1148.9496499999998 2347.6570099999994C1148.95672 2347.0701099999997 1149.1829999999998 2346.5185699999993 1149.6001899999999 2346.1013799999996C1150.01031 2345.6912599999996 1150.56893 2345.4579099999996 1151.1487499999998 2345.4579099999996L1157.6329199999998 2345.42255C1158.3683099999998 2345.42255 1158.9622799999997 2346.0165199999997 1158.9622799999997 2346.75191L1158.9339999999997 2353.2855799999998C1158.9127899999996 2355.80995 1157.6753499999998 2358.1928999999996 1155.6247399999997 2359.6636799999997L1155.5964599999998 2359.67782C1153.9559699999998 2360.85162 1152.9730899999997 2362.7395899999997 1152.9589499999997 2364.7477799999997C1152.9660199999998 2365.17912 1153.3054299999997 2365.51853 1153.7296999999996 2365.51853C1154.1610399999997 2365.5114599999997 1154.5075199999997 2365.16498 1154.5075199999997 2364.74071C1154.5145899999998 2363.23457 1155.2570499999997 2361.81329 1156.4874199999997 2360.93648L1156.5086299999998 2360.91527C1158.9764299999997 2359.15457 1160.4613599999998 2356.29786 1160.4754999999998 2353.28559L1160.48257 2351.77945L1163.5514099999998 2351.7653099999998C1165.19897 2351.7582399999997 1166.8606699999998 2352.1612899999996 1168.3668099999998 2352.9320399999997C1169.5759599999997 2353.5472199999995 1170.8841099999997 2353.85128 1172.2488299999998 2353.8442099999997C1174.5681399999999 2353.8300699999995 1176.7530999999997 2352.9037599999997 1178.3723699999998 2351.2279099999996C1179.9987199999998 2349.5449999999996 1180.8613899999998 2347.3388199999995 1180.7977499999997 2345.0124399999995C1180.7977499999997 2344.7437399999994 1180.6492599999997 2344.4962499999997 1180.4229799999998 2344.3689699999995C1180.1896299999999 2344.2346199999997 1179.9067899999998 2344.2346199999997 1179.6734499999998 2344.3548299999993L1175.3105999999998 2346.6529299999993C1174.0165899999997 2347.3388199999995 1172.4114599999998 2346.8509199999994 1171.7397099999998 2345.5569099999993C1171.0679599999999 2344.2628999999993 1171.57 2342.6577699999993 1172.87108 2341.9648099999995L1177.17736 2339.6949999999997C1177.41778 2339.5677199999996 1177.57334 2339.3273 1177.5945499999998 2339.0656699999995C1177.61576 2338.7898999999993 1177.4955599999998 2338.5424099999996 1177.2763499999999 2338.3797799999993C1175.9823399999998 2337.4534699999995 1174.46914 2336.9160699999993 1172.88522 2336.817069999999C1170.10629 2336.6544399999993 1167.39807 2337.863589999999 1165.65859 2340.041479999999C1163.73526 2342.431499999999 1160.85026 2343.831569999999 1157.71778 2343.881069999999C1157.6895 2343.881069999999 1156.3954899999999 2343.888139999999 1156.3954899999999 2343.888139999999L1156.4167 2338.973749999999C1156.42377 2337.0292099999992 1154.84692 2335.4523599999993 1152.90238 2335.459429999999C1152.00435 2335.466499999999 1151.15583 2335.805909999999 1150.49822 2336.421099999999C1149.89718 2335.325079999999 1148.73752 2334.575549999999 1147.4010899999998 2334.582619999999C1146.4323499999998 2334.5896899999993 1145.54847 2334.9927399999992 1144.9049999999997 2335.636209999999C1144.6575099999998 2335.8836999999994 1144.4453799999997 2336.1665399999993 1144.2756699999998 2336.4776699999993C1143.6251299999997 2335.869559999999 1142.7836699999998 2335.5513599999995 1141.8927199999998 2335.5513599999995C1140.9451999999999 2335.5513599999995 1140.0613099999998 2335.9261299999994 1139.3895599999998 2336.5978799999993C1138.8592299999998 2337.1282099999994 1138.5198199999998 2337.7928899999993 1138.3925399999998 2338.5141399999993C1137.8056399999998 2338.096949999999 1137.1056099999998 2337.8777399999994 1136.3702099999998 2337.8777399999994C1135.4297599999998 2337.8848099999996 1134.54587 2338.2595799999995 1133.8741199999997 2338.9313299999994C1133.2023699999997 2339.6030799999994 1132.8275999999996 2340.4869599999993 1132.8275999999996 2341.4203499999994L1132.8134599999996 2344.0083599999994L1129.4476299999997 2344.0224999999996C1127.8000699999996 2344.0295699999997 1126.1383699999997 2343.62652 1124.6251599999996 2342.86284C1123.4230799999996 2342.24059 1122.1149299999995 2341.93653 1120.7502099999997 2341.9435999999996C1118.4733299999998 2341.95774 1116.3378599999996 2342.8486999999996 1114.7256599999996 2344.4608999999996C1114.6902999999995 2344.4962599999994 1114.6549499999996 2344.5316099999995 1114.6266699999996 2344.5598899999995C1112.9932499999998 2346.2357299999994 1112.1376499999997 2348.4489799999997 1112.2012899999997 2350.7753599999996C1112.2012899999997 2351.0440599999997 1112.3427099999997 2351.28448 1112.5760599999996 2351.4188299999996C1112.8094099999996 2351.5531799999994 1113.0922499999997 2351.5531799999994 1113.3255899999997 2351.43297L1117.6813699999998 2349.1277999999998C1118.9824499999997 2348.4489799999997 1120.58758 2348.9368799999997 1121.2593299999999 2350.23089C1121.5846 2350.8531399999997 1121.6411699999999 2351.5743899999998 1121.4290399999998 2352.2532199999996C1121.2169099999999 2352.9320399999997 1120.7502199999997 2353.48359 1120.1208899999997 2353.8159299999998L1115.8146099999997 2356.0857399999995C1115.5741899999996 2356.2130199999997 1115.4186299999997 2356.4534399999993 1115.4044899999997 2356.7221399999994C1115.3762099999997 2356.9908399999995 1115.5034799999996 2357.2453999999993 1115.7156199999997 2357.4009599999995C1117.0096299999998 2358.3272699999993 1118.5298999999998 2358.8717399999996 1120.1067499999997 2358.9636699999996ZM1172.77917 2338.36563C1173.6347700000001 2338.41513 1174.46916 2338.6272599999998 1175.23283 2338.9808099999996L1172.16399 2340.6071599999996C1171.1599 2341.1304199999995 1170.43158 2342.0142999999994 1170.0851 2343.0820299999996C1169.75276 2344.14976 1169.84468 2345.2881999999995 1170.36794 2346.2781499999996C1171.4286000000002 2348.3287599999994 1173.9741800000002 2349.1065799999997 1176.0247900000002 2348.01763L1179.1714200000001 2346.3559299999997C1178.9522200000001 2347.7772099999997 1178.2946100000001 2349.0995 1177.2693000000002 2350.15309C1177.2410200000002 2350.18137 1177.2127300000002 2350.20966 1177.19152 2350.23087C1175.86923 2351.55316 1174.11561 2352.2885499999998 1172.25591 2352.29562C1171.1316100000001 2352.30269 1170.07095 2352.0481299999997 1169.0810000000001 2351.55316C1167.36273 2350.66928 1165.44647 2350.20966 1163.5514200000002 2350.2237999999998L1160.4896500000002 2350.23087L1160.5037900000002 2346.7518999999998C1160.5108600000003 2346.165 1160.3340800000003 2345.6205299999997 1160.0371000000002 2345.1679799999997C1162.7241100000003 2344.60229 1165.1282700000002 2343.1598 1166.8606800000002 2341.00312C1168.2819600000003 2339.21414 1170.5022800000002 2338.22419 1172.7791600000003 2338.36561ZM1149.36686 2338.104L1149.33858 2344.39725C1149.0345200000002 2344.55988 1148.76582 2344.77202 1148.51834 2345.0195C1147.8041600000001 2345.73368 1147.4081800000001 2346.6670599999998 1147.40111 2347.66408C1147.4081800000001 2347.95399 1147.43647 2348.23684 1147.5001 2348.51261C1147.44353 2348.51261 1147.39403 2348.5196800000003 1147.33747 2348.5196800000003C1146.80714 2348.5267500000004 1146.3050899999998 2348.32169 1145.9374 2347.9539900000004C1145.5626300000001 2347.5792200000005 1145.36464 2347.0842500000003 1145.36464 2346.5468500000006L1145.4 2338.1252100000006C1145.4070700000002 2337.0291900000007 1146.2980300000002 2336.1382400000007 1147.3940400000001 2336.1311700000006C1148.4829800000002 2336.1311700000006 1149.36687 2337.0150500000004 1149.36687 2338.1040000000007ZM1141.8786 2337.09284C1142.416 2337.09284 1142.9039 2337.2978999999996 1143.27867 2337.67267C1143.64637 2338.0403699999997 1143.8584999999998 2338.53534 1143.85143 2339.06567L1143.8160699999999 2346.55393C1143.8160699999999 2347.10547 1143.5897999999997 2347.60045 1143.2291699999998 2347.96107C1142.86855 2348.3216899999998 1142.3735699999997 2348.5479699999996 1141.8220299999998 2348.5479699999996C1140.7401599999998 2348.5550399999997 1139.8491999999999 2347.6640899999998 1139.8562699999998 2346.5822099999996L1139.8916299999999 2339.0798099999997C1139.8916299999999 2338.55655 1140.1037599999997 2338.0615799999996 1140.4785299999999 2337.6868099999997C1140.8532999999998 2337.31204 1141.34827 2337.09991 1141.8785999999998 2337.09284ZM1134.95602 2340.01319C1135.33079 2339.63842 1135.83283 2339.43336 1136.36316 2339.4262900000003C1137.45918 2339.41922 1138.33599 2340.31017 1138.33599 2341.3991200000005L1138.30771 2346.7448500000005C1138.30771 2347.2822500000007 1138.0955800000002 2347.7772300000006 1137.72081 2348.1519900000003C1137.3460400000001 2348.52676 1136.85107 2348.73889 1136.31367 2348.73889C1135.2318 2348.74596 1134.34791 2347.86208 1134.34791 2346.77313L1134.36912 2341.42033C1134.3761900000002 2340.89 1134.58832 2340.39503 1134.95602 2340.01319ZM1154.86815 2338.98082L1154.84694 2343.89521C1154.84694 2343.89521 1150.9790699999999 2343.91642 1150.8871399999998 2343.92349L1150.90835 2338.99496C1150.90835 2338.4717 1151.11341 2337.96966 1151.4881799999998 2337.59489C1151.8700199999998 2337.21305 1152.37206 2337.00799 1152.8953199999999 2337.00799C1153.42565 2337.00092 1153.9206199999999 2337.21305 1154.2883199999999 2337.58075C1154.6630899999998 2337.95552 1154.8681499999998 2338.44342 1154.8681499999998 2338.98082ZM1122.90693 2352.69869C1123.2463400000001 2351.63803 1123.1473500000002 2350.4925200000002 1122.6311600000001 2349.50964C1122.11497 2348.5126200000004 1121.2452300000002 2347.7843000000003 1120.1704300000001 2347.4590300000004C1119.1027000000001 2347.1266900000005 1117.97133 2347.2398300000004 1116.97431 2347.7701600000005L1113.82061 2349.4247900000005C1114.04688 2348.0105800000006 1114.70449 2346.6882900000005 1115.7298 2345.6347000000005C1117.0662300000001 2344.2558400000007 1118.8410700000002 2343.4992400000006 1120.7431900000001 2343.4921700000004C1121.8604200000002 2343.47803 1122.9281500000002 2343.7396600000006 1123.9181 2344.2346300000004C1125.6363700000002 2345.1185100000002 1127.5526300000001 2345.5781300000003 1129.44768 2345.5639900000006L1132.81351 2345.5498500000003L1132.8064399999998 2346.7731400000002C1132.7922999999998 2348.7247500000003 1134.36207 2350.29453 1136.31369 2350.2803900000004C1137.26121 2350.2803900000004 1138.1451 2349.9056200000005 1138.80978 2349.24094C1138.92999 2349.12073 1139.04313 2348.99345 1139.14212 2348.8661700000002C1139.78559 2349.6227700000004 1140.74725 2350.10361 1141.82205 2350.08946C1142.93221 2350.08239 1143.92923 2349.5662 1144.57977 2348.7601C1144.6575500000001 2348.85202 1144.7424 2348.95102 1144.8414 2349.05001C1145.49901 2349.70762 1146.38996 2350.0753099999997 1147.33042 2350.06824C1147.62033 2350.06117 1147.91025 2350.02581 1148.18602 2349.9621700000002C1148.27087 2350.07531 1148.36987 2350.1884400000004 1148.47593 2350.29451L1135.43688 2350.3510800000004C1131.767 2350.3722900000002 1128.3870299999999 2351.9845000000005 1126.13843 2354.7846400000003C1124.7100699999999 2356.5665500000005 1122.48976 2357.5565 1120.21995 2357.4221500000003C1119.3643499999998 2357.3726500000002 1118.5299599999998 2357.1605200000004 1117.75922 2356.7999000000004L1120.83513 2355.1806300000003C1121.83215 2354.6503000000002 1122.56754 2353.7734900000005 1122.9069499999998 2352.69869Z " fill="#909090" fill-opacity="1" transform="matrix(1,0,0,1,-1112,-2334)"></path></svg>