<svg id="SvgjsSvg1023" xmlns="http://www.w3.org/2000/svg" version="1.1" xmlns:xlink="http://www.w3.org/1999/xlink" xmlns:svgjs="http://svgjs.com/svgjs" width="60" height="60"><defs id="SvgjsDefs1024"><clipPath id="SvgjsClipPath1027"><path id="SvgjsPath1026" d="M1700 12366C1683.43146 12366 1670 12352.56854 1670 12336C1670 12319.43146 1683.43146 12306 1700 12306C1716.56854 12306 1730 12319.43146 1730 12336C1730 12352.56854 1716.56854 12366 1700 12366Z " fill="#ffffff"></path></clipPath></defs><path id="SvgjsPath1025" d="M1700 12366C1683.43146 12366 1670 12352.56854 1670 12336C1670 12319.43146 1683.43146 12306 1700 12306C1716.56854 12306 1730 12319.43146 1730 12336C1730 12352.56854 1716.56854 12366 1700 12366Z " fill-opacity="0" fill="#ffffff" stroke-dasharray="0" stroke-linejoin="miter" stroke-linecap="butt" stroke-opacity="1" stroke="#f0ebe7" stroke-miterlimit="50" stroke-width="28" clip-path="url(&quot;#SvgjsClipPath1027&quot;)" transform="matrix(1,0,0,1,-1670,-12306)"></path><path id="SvgjsPath1028" d="M1707 12339L1700 12332 " fill-opacity="0" fill="#ffffff" stroke-dasharray="0" stroke-linejoin="miter" stroke-linecap="square" stroke-opacity="1" stroke="#9e8e84" stroke-miterlimit="50" stroke-width="1" transform="matrix(1,0,0,1,-1670,-12306)"></path><path id="SvgjsPath1029" d="M1693 12339L1700 12332 " fill-opacity="0" fill="#ffffff" stroke-dasharray="0" stroke-linejoin="miter" stroke-linecap="square" stroke-opacity="1" stroke="#9e8e84" stroke-miterlimit="50" stroke-width="1" transform="matrix(1,0,0,1,-1670,-12306)"></path></svg>